<svg xmlns="http://www.w3.org/2000/svg" width="108.814" height="31" viewBox="0 0 108.814 31">
  <g id="BBC-01-1" transform="translate(-14.7 -10.4)">
    <path id="Carrés" d="M14.7,10.4H47.617v31H14.7Zm37.949,31H85.565v-31H52.649Zm37.949,0h32.917v-31H90.6Z" fill="#939598"/>
    <path id="B_1_" d="M56.674,39.746A4.175,4.175,0,0,0,59.07,36s.359-4.463-5.541-5H47V49.66h7.488s6.26.03,6.26-5.271C60.748,44.388,60.9,40.794,56.674,39.746Zm-6.35-5.841H52.99c2.786.15,2.666,2.216,2.666,2.216,0,2.576-3.085,2.606-3.085,2.606H50.295V33.905Zm7.009,10.213c0,2.815-3.5,2.666-3.5,2.666h-3.5V41.693h3.5C57.423,41.663,57.333,44.119,57.333,44.119Z" transform="translate(-22.626 -14.43)" fill="#fff"/>
    <path id="B_2_" d="M183,39.746A4.175,4.175,0,0,0,185.4,36s.359-4.463-5.541-5H173.3V49.66h7.488s6.26.03,6.26-5.271C187.078,44.388,187.227,40.794,183,39.746Zm-6.35-5.841h2.666c2.785.15,2.666,2.216,2.666,2.216,0,2.576-3.085,2.606-3.085,2.606h-2.276V33.905Zm7.009,10.213c0,2.815-3.5,2.666-3.5,2.666h-3.5V41.693h3.5C183.753,41.663,183.663,44.119,183.663,44.119Z" transform="translate(-111.097 -14.43)" fill="#fff"/>
    <path id="C" d="M309.64,32.2v3.355a15.646,15.646,0,0,0-6.919-2.067s-6.769-.12-7.069,6.5c0,0-.24,6.08,7.009,6.44,0,0,3.025.359,7.158-2.276v3.474a14.424,14.424,0,0,1-11.921.749,9.107,9.107,0,0,1,1.348-17.252,12.674,12.674,0,0,1,5.361-.419A23.04,23.04,0,0,1,309.64,32.2Z" transform="translate(-194.453 -14.164)" fill="#fff"/>
  </g>
</svg>
