<svg xmlns="http://www.w3.org/2000/svg" width="118.945" height="31" viewBox="0 0 118.945 31">
  <g id="forbes" transform="translate(-4.2 -182.4)">
    <g id="Group_1106" data-name="Group 1106" transform="translate(4.2 182.957)">
      <path id="Path_2088" data-name="Path 2088" d="M433.889,353.136c-.449-3.805-2.063-6.59-4.723-8.158a11.922,11.922,0,0,0-10.653-.237,10.355,10.355,0,0,0-5.028,5.951,15.327,15.327,0,0,0,0,8.818,9.606,9.606,0,0,0,2.465,4.141,9.277,9.277,0,0,0,5.285,2.558h0a23.546,23.546,0,0,0,3.862.005,12.915,12.915,0,0,0,1.4-.3,10.2,10.2,0,0,0,7.224-8.137A20.233,20.233,0,0,0,433.889,353.136Zm-6.446,4.569c-.284,4-1.15,6.172-2.774,6.925a3.116,3.116,0,0,1-2.192.031h0c-1.408-.639-2.408-2.583-2.908-5.657a38.736,38.736,0,0,1-.057-8.405c.407-2.98,1.263-4.744,2.6-5.337a2.933,2.933,0,0,1,3,.572C426.923,347.474,427.836,352.125,427.444,357.7Z" transform="translate(-391.766 -335.846)" fill="#939598"/>
      <path id="Path_2089" data-name="Path 2089" d="M15.188,195.17l3.151.026,3.151.026.732.263a6.975,6.975,0,0,1,3.94,4c.227.485.521,1.191.655,1.568s.242.7.258.712a3.289,3.289,0,0,0,.624-.16l.608-.186-.041-2.8c-.026-1.542-.067-3.388-.093-4.11l-.052-1.31H4.2l.026.536.026.536.773.1a3.447,3.447,0,0,1,1.82.541A3.411,3.411,0,0,1,8.1,197.088c.376,1.635.516,5.327.454,12.236-.067,7.3-.16,8.818-.624,10.292a2.661,2.661,0,0,1-2.274,2.047c-.325.052-.784.139-1.021.191l-.433.093v.928H19.556V222.4h0a1.072,1.072,0,0,0-.052-.469,14.281,14.281,0,0,1-2.619-.562c-1.088-.547-1.593-1.851-1.789-4.631-.139-1.975-.278-7.771-.186-7.864a33.027,33.027,0,0,1,4.13.165c1.171.278,2.073,1.433,2.527,3.223l.2.789.526.026.526.026v-9.952h-.557c-.521,0-.557.01-.557.191a7.347,7.347,0,0,1-.634,2,3.017,3.017,0,0,1-2.026,1.825c-.211.046-1.212.129-2.228.175-1.428.067-1.856.062-1.908-.021-.1-.15.129-11.442.242-11.963Z" transform="translate(-4.2 -193.2)" fill="#939598"/>
      <path id="Path_2090" data-name="Path 2090" d="M841.48,347.062c-.062.222-2.037,5.445-2.073,5.481a3.391,3.391,0,0,1-.66-.278,6.51,6.51,0,0,0-3.945-.557,4.125,4.125,0,0,0-1.7.81l-.211.227v4.9c0,6.281.129,7.833.712,8.673.4.578.825.732,2.357.861l.665.057v.464h0v.464H824l.026-.449.026-.449.763-.15a4.634,4.634,0,0,0,1.031-.3,2.549,2.549,0,0,0,.944-1.547,104.753,104.753,0,0,0,.144-13.4c-.2-1.892-.665-2.537-2-2.754-.964-.155-.928-.134-.928-.459a.556.556,0,0,1,.077-.34c.1-.062.691-.186,4.94-1.042,1.98-.4,3.7-.743,3.811-.773l.206-.046-.057,2.362c-.046,1.887-.036,2.362.052,2.362a2.49,2.49,0,0,0,.521-.753c1.361-2.491,3.254-3.9,5.383-4.027a4.613,4.613,0,0,1,2.125.335C841.393,346.872,841.511,346.959,841.48,347.062Z" transform="translate(-781.727 -338.487)" fill="#939598"/>
      <path id="Path_2091" data-name="Path 2091" d="M2017.015,363.638c-.619,2.986-2.97,4.94-6.611,5.492h0a20.307,20.307,0,0,1-4.373-.01,17.99,17.99,0,0,1-4.563-1.083c-.129-.1-.15-.449-.206-3.13l-.062-3.022.242-.093c.526-.2.552-.18.9.66,1.33,3.238,2.965,4.775,5.286,4.961a3.445,3.445,0,0,0,3.661-1.918,2.455,2.455,0,0,0,.273-1.433,2.076,2.076,0,0,0-.3-1.408,3.34,3.34,0,0,0-.8-.969,15.287,15.287,0,0,0-3.574-1.784,9.243,9.243,0,0,1-3.821-2.243,5.318,5.318,0,0,1-1.433-3.888,5.655,5.655,0,0,1,.629-2.836,7.3,7.3,0,0,1,4.868-3.7,7.514,7.514,0,0,1,2.846-.33,12.8,12.8,0,0,1,2.872.258,18.14,18.14,0,0,1,2.8.763l.309.134.062,2.671c.036,1.47.036,2.7.005,2.728a1.654,1.654,0,0,1-.4.16c-.3.088-.351.082-.392-.041A19.762,19.762,0,0,0,2014.1,351a4.87,4.87,0,0,0-3.119-2.547,3.348,3.348,0,0,0-2.7.345,3.064,3.064,0,0,0-1.335,2.7,2.615,2.615,0,0,0,.6,1.851c.552.722,1.9,1.526,4.146,2.48,3.027,1.279,4.249,2.186,4.971,3.687A6.9,6.9,0,0,1,2017.015,363.638Z" transform="translate(-1898.226 -338.975)" fill="#939598"/>
    </g>
    <path id="Path_2092" data-name="Path 2092" d="M1162.716,200.716a10.886,10.886,0,0,0-1.263-5.058,7.98,7.98,0,0,0-5.363-4.3,9.313,9.313,0,0,0-5.486.7,5.15,5.15,0,0,1-.872.351c-.108,0-.124-.634-.093-5l.031-5-.345.067c-.191.036-2.119.4-4.29.8s-4.027.748-4.13.773c-.155.036-.186.1-.17.366.021.3.041.325.361.4,1.088.237,1.279.325,1.686.743a3.917,3.917,0,0,1,.866,2.527c.118,1.088.144,19.8.031,22.565l-.067,1.64.882.191a27.418,27.418,0,0,0,8.776.65,10.457,10.457,0,0,0,6.136-2.872C1161.742,207.94,1162.866,204.7,1162.716,200.716Zm-6.564,3.47c-.387,3-1.366,5.414-2.666,6.585a3.183,3.183,0,0,1-1.624.835h0a4.079,4.079,0,0,1-1.4.026c-.345-.026-.423-.067-.495-.253-.108-.289-.242-10.339-.186-14.356l.041-3.135.567-.165a4.733,4.733,0,0,1,1.346-.165,2.3,2.3,0,0,1,1.433.325c1.475.727,2.485,2.537,2.955,5.291A26.129,26.129,0,0,1,1156.152,204.186Z" transform="translate(-1077.926)" fill="#939598"/>
    <path id="Path_2093" data-name="Path 2093" d="M1612.936,358.017c.067-.041,2.924-.077,6.4-.077h6.281v-.248a20.659,20.659,0,0,0-.351-2.877c-.665-3.2-2.429-5.476-4.94-6.394a8.751,8.751,0,0,0-3.192-.521,9.614,9.614,0,0,0-7.234,2.9,11.133,11.133,0,0,0-2.908,5.713,10.383,10.383,0,0,0-.191,2.661,10.192,10.192,0,0,0,.186,2.635c1,4.5,3.96,7.461,8.209,8.219a12.911,12.911,0,0,0,3.728.036h0a10.353,10.353,0,0,0,5.353-2.609c.768-.727,1.026-1.083.918-1.268-.284-.49-.273-.49-1.006-.041a6.019,6.019,0,0,1-3.109,1.052,7.74,7.74,0,0,1-4.424-.8,7.023,7.023,0,0,1-2.521-2.491,10.826,10.826,0,0,1-1.258-4.806C1612.828,358.285,1612.838,358.079,1612.936,358.017Zm.165-2.006a10,10,0,0,1,.124-1.119c.536-3.455,1.825-5.528,3.434-5.528,1.485,0,2.4,2.042,2.589,5.78l.052,1.062-1.49.052h0c-.82.031-2.217.062-3.1.077l-1.609.026Z" transform="translate(-1519.963 -156.966)" fill="#939598"/>
  </g>
</svg>
