<svg xmlns="http://www.w3.org/2000/svg" width="191.103" height="31.281" viewBox="0 0 191.103 31.281">
  <g id="mashable" transform="translate(0 -6.6)">
    <path id="Path_2094" data-name="Path 2094" d="M28.276,37.3V16.945L20.08,37.3H16.392L8.333,16.945V37.3H0V6.7H11.611L18.3,23.5,25,6.7H36.472V37.3Z" transform="translate(0 0.037)" fill="#939598" fill-rule="evenodd"/>
    <path id="Path_2095" data-name="Path 2095" d="M42.9,35.139V32.953c-1.366,1.639-4.235,2.732-7.24,2.732-3.552,0-8.059-2.459-8.059-7.24,0-5.327,4.508-7.1,8.059-7.1,3.142,0,5.874.956,7.24,2.6V21.752c0-1.912-1.639-3.278-4.781-3.278a9.45,9.45,0,0,0-6.42,2.459l-2.732-4.918A16.724,16.724,0,0,1,39.484,12.6c5.6,0,10.791,1.912,10.791,8.742v13.8Zm0-5.737V27.489a5.8,5.8,0,0,0-4.1-1.5c-2.049,0-3.688.82-3.688,2.459,0,1.776,1.776,2.459,3.688,2.459a5.262,5.262,0,0,0,4.1-1.5Z" transform="translate(10.101 2.196)" fill="#939598" fill-rule="evenodd"/>
    <path id="Path_2096" data-name="Path 2096" d="M44.6,32.207l3.142-5.054a15.5,15.5,0,0,0,8.2,2.869c2.186,0,3.142-.546,3.142-1.5,0-2.732-13.523.137-13.523-8.879,0-3.961,3.552-7.24,9.972-7.24a17.354,17.354,0,0,1,9.7,2.869l-2.869,5.054a10.418,10.418,0,0,0-6.967-2.459c-1.639,0-2.869.683-2.869,1.5,0,2.459,13.523-.137,13.523,9.016,0,4.235-3.961,7.1-10.518,7.1-4.235.273-8.606-1.229-10.928-3.278Z" transform="translate(16.323 2.123)" fill="#939598" fill-rule="evenodd"/>
    <path id="Path_2097" data-name="Path 2097" d="M76.809,37.335V24.358c0-2.732-1.5-3.552-3.825-3.552a6.664,6.664,0,0,0-4.508,2.049V37.062H61.1V6.6h7.376V17.665a10.847,10.847,0,0,1,8.059-3.278c5.327,0,7.65,2.869,7.65,6.83V36.925l-7.376.41Z" transform="translate(22.362 0)" fill="#939598" fill-rule="evenodd"/>
    <path id="Path_2098" data-name="Path 2098" d="M94,35.139V32.953c-1.366,1.639-4.235,2.732-7.24,2.732-3.552,0-8.059-2.459-8.059-7.24,0-5.327,4.508-7.1,8.059-7.1,3.142,0,5.874.956,7.24,2.6V21.752c0-1.912-1.639-3.278-4.781-3.278a9.45,9.45,0,0,0-6.42,2.459l-2.732-4.918A16.724,16.724,0,0,1,90.584,12.6c5.6,0,10.791,1.912,10.791,8.742v13.8ZM94,29.4V27.489a5.8,5.8,0,0,0-4.1-1.5c-2.049,0-3.688.82-3.688,2.459,0,1.776,1.776,2.459,3.688,2.459A5.08,5.08,0,0,0,94,29.4Z" transform="translate(28.804 2.196)" fill="#939598" fill-rule="evenodd"/>
    <path id="Path_2099" data-name="Path 2099" d="M97.2,37.3V6.7h7.376V17.628a8.985,8.985,0,0,1,6.967-3.142c5.874,0,10.245,4.371,10.245,11.474,0,7.513-4.508,11.611-10.245,11.611a8.985,8.985,0,0,1-6.967-3.142v2.459L97.2,37.3Zm11.748-5.737c3.005,0,5.191-2.049,5.191-5.464a4.984,4.984,0,0,0-5.191-5.327,6.091,6.091,0,0,0-4.508,2.049v6.693a6.044,6.044,0,0,0,4.508,2.049Z" transform="translate(35.575 0.037)" fill="#939598" fill-rule="evenodd"/>
    <path id="Path_2100" data-name="Path 2100" d="M116,37.3h7.376V6.7H116Z" transform="translate(42.455 0.037)" fill="#939598" fill-rule="evenodd"/>
    <path id="Path_2101" data-name="Path 2101" d="M122.2,23.974c0-6.42,5.054-11.474,12.294-11.474,6.967,0,11.884,4.781,11.884,12.294v1.639H129.85c.546,1.912,2.6,3.688,5.874,3.688a9.964,9.964,0,0,0,5.737-1.912l3.142,4.508c-2.322,1.912-6.147,2.869-9.7,2.869-7.376.137-12.7-4.371-12.7-11.611ZM134.494,18.1c-3.142,0-4.508,1.912-4.781,3.415h9.562c-.137-1.5-1.366-3.415-4.781-3.415Z" transform="translate(44.724 2.159)" fill="#939598" fill-rule="evenodd"/>
  </g>
</svg>
