<svg xmlns="http://www.w3.org/2000/svg" width="112" height="112" viewBox="0 0 112 112">
  <g id="Group_2769" data-name="Group 2769" transform="translate(-1284 -5022)">
    <circle id="Ellipse_547" data-name="Ellipse 547" cx="56" cy="56" r="56" transform="translate(1284 5022)" fill="#58c83c" opacity="0.08"/>
    <path id="Icon_material-block" data-name="Icon material-block" d="M24.376,3A21.376,21.376,0,1,0,45.751,24.376,21.383,21.383,0,0,0,24.376,3ZM7.275,24.376a17.1,17.1,0,0,1,17.1-17.1A16.892,16.892,0,0,1,34.85,10.888L10.888,34.85A16.892,16.892,0,0,1,7.275,24.376Zm17.1,17.1A16.892,16.892,0,0,1,13.9,37.863L37.863,13.9a16.892,16.892,0,0,1,3.612,10.474A17.1,17.1,0,0,1,24.376,41.476Z" transform="translate(1316.645 5052.604)" fill="#58c83c"/>
  </g>
</svg>
