<svg xmlns="http://www.w3.org/2000/svg" width="112" height="112" viewBox="0 0 112 112">
  <g id="Group_2766" data-name="Group 2766" transform="translate(-1446 -5022)">
    <circle id="Ellipse_548" data-name="Ellipse 548" cx="56" cy="56" r="56" transform="translate(1446 5022)" fill="#58c83c" opacity="0.08"/>
    <path id="Icon_material-web-asset" data-name="Icon material-web-asset" d="M43.216,6H9.339A4.838,4.838,0,0,0,4.5,10.839V39.876a4.838,4.838,0,0,0,4.839,4.839H43.216a4.854,4.854,0,0,0,4.839-4.839V10.839A4.838,4.838,0,0,0,43.216,6Zm0,33.876H9.339v-24.2H43.216Z" transform="translate(1475.722 5053.639)" fill="#58c83c"/>
    <path id="Icon_awesome-filter" data-name="Icon awesome-filter" d="M28.661,0H1.411a1.411,1.411,0,0,0-1,2.406L11.277,13.271v12.1a1.41,1.41,0,0,0,.6,1.155l4.7,3.288A1.411,1.411,0,0,0,18.8,28.661V13.271L29.658,2.406A1.411,1.411,0,0,0,28.661,0Z" transform="translate(1506 5057.925)" fill="#eceff4"/>
    <path id="Icon_awesome-filter-2" data-name="Icon awesome-filter" d="M28.661,0H1.411a1.411,1.411,0,0,0-1,2.406L11.277,13.271v12.1a1.41,1.41,0,0,0,.6,1.155l4.7,3.288A1.411,1.411,0,0,0,18.8,28.661V13.271L29.658,2.406A1.411,1.411,0,0,0,28.661,0Z" transform="translate(1505 5051.925)" fill="#58c83c"/>
  </g>
</svg>
