<svg xmlns="http://www.w3.org/2000/svg" width="124.345" height="124.343" viewBox="0 0 124.345 124.343">
  <g id="Group_1124" data-name="Group 1124" transform="translate(0)">
    <path id="Path_2165" data-name="Path 2165" d="M327.658,154.609c-4.272,0-8.544.011-12.816,0a13.676,13.676,0,0,1-14.1-14.132q-.024-12.817,0-25.633c.018-8.185,5.936-14.089,14.129-14.1q12.817-.022,25.633,0c8.189.016,14.088,5.923,14.1,14.127q.026,12.817,0,25.633c-.018,8.181-5.942,14.086-14.129,14.108C336.2,154.619,331.93,154.609,327.658,154.609Z" transform="translate(-300.724 -100.726)" fill="#1994da"/>
    <path id="Path_2166" data-name="Path 2166" d="M531.656,100.743c4.272,0,8.544-.01,12.816,0,8.2.022,14.112,5.913,14.13,14.1q.029,12.817,0,25.633c-.016,8.193-5.928,14.117-14.1,14.133q-12.817.025-25.633,0c-8.189-.015-14.113-5.925-14.13-14.1q-.027-12.817,0-25.633c.016-8.2,5.922-14.106,14.1-14.131C523.112,100.732,527.384,100.743,531.656,100.743Z" transform="translate(-434.272 -100.734)" fill="#1994da"/>
    <path id="Path_2167" data-name="Path 2167" d="M354.608,331.671c0,4.272.012,8.545,0,12.817-.028,8.188-5.937,14.1-14.119,14.118q-12.816.024-25.633,0a13.667,13.667,0,0,1-14.116-14.119q-.026-12.817,0-25.633a13.659,13.659,0,0,1,14.118-14.115q12.817-.024,25.633,0c8.192.015,14.089,5.919,14.117,14.116C354.62,323.126,354.608,327.4,354.608,331.671Z" transform="translate(-300.724 -234.275)" fill="#1994da"/>
    <path id="Path_2168" data-name="Path 2168" d="M531.649,304.751a26.937,26.937,0,1,1-26.9,26.91A26.947,26.947,0,0,1,531.649,304.751Z" transform="translate(-434.291 -234.291)" fill="#504453"/>
    <path id="Icon_metro-cross" data-name="Icon metro-cross" d="M25.928,20.866h0l-7.151-7.151,7.151-7.151h0a.738.738,0,0,0,0-1.042L22.55,2.143a.739.739,0,0,0-1.042,0h0L14.357,9.294,7.206,2.143h0a.738.738,0,0,0-1.042,0L2.786,5.521a.738.738,0,0,0,0,1.042h0l7.151,7.151L2.786,20.865h0a.738.738,0,0,0,0,1.042l3.378,3.378a.738.738,0,0,0,1.042,0h0l7.151-7.151,7.151,7.151h0a.738.738,0,0,0,1.041,0l3.378-3.378a.738.738,0,0,0,0-1.042Z" transform="translate(83.041 83.683)" fill="#fff"/>
  </g>
</svg>
