<svg id="Group_1125" data-name="Group 1125" xmlns="http://www.w3.org/2000/svg" width="129.617" height="129.618" viewBox="0 0 129.617 129.618">
  <path id="Path_2169" data-name="Path 2169" d="M288.75,186.189V95.836a15.463,15.463,0,0,1,1.148-3.022,9.16,9.16,0,0,1,5.938-4.064h6.327c1.039,2.437,2.093,4.867,3.113,7.312a4.957,4.957,0,0,0,5,3.307q9.219-.029,18.439,0a4.958,4.958,0,0,0,5-3.309c1.021-2.444,2.075-4.875,3.114-7.311H342.4a1.586,1.586,0,0,0,.431.232c3.648.653,6.52,4.683,6.462,8.394-.161,10.275-.057,20.555-.057,30.833-.206-.142-.419-.275-.618-.426a17.268,17.268,0,0,0-25.6,4.967c-3.209,5.435-3.041,11.19-1.222,16.971,2.294,7.291,7.129,12.789,12.861,17.6a82.316,82.316,0,0,0,14.613,9.425q-.028,4.742-.056,9.485-29.41,0-58.821-.006C289.845,186.224,289.3,186.2,288.75,186.189Zm19.474-45.683c0,.379-.007.759,0,1.138a1.932,1.932,0,1,0,3.814-.041,24.869,24.869,0,0,1,.507-4.626c1.9-9.022,7-15.5,15.45-19.284a30.169,30.169,0,0,1,6.4-1.858,1.693,1.693,0,0,0,1.435-1.552,1.914,1.914,0,0,0-.974-2.028,2.609,2.609,0,0,0-1.965-.116,30.115,30.115,0,0,0-24.666,28.367Z" transform="translate(-288.731 -88.731)" fill="#c8effe"/>
  <path id="Path_2172" data-name="Path 2172" d="M349.214,377.542c.007,3.456.124,6.917-.01,10.368a8.017,8.017,0,0,1-7.174,7.323c-.713.062-1.432.07-2.148.07q-20.746.006-41.492,0c-5.32,0-7.365-1.36-9.448-6.274-.027-.063-.127-.1-.192-.142V377.5c.548.012,1.1.035,1.643.035Q319.8,377.54,349.214,377.542Zm-30.084,7.038c-2.652,0-5.3-.006-7.955,0A1.963,1.963,0,0,0,309,386.5a1.937,1.937,0,0,0,2.11,1.879q7.892.027,15.785,0a1.929,1.929,0,0,0,2.091-2.023c-.019-1.056-.865-1.764-2.156-1.769C324.265,384.573,321.7,384.579,319.129,384.579Z" transform="translate(-288.731 -280.042)" fill="#1994da"/>
  <path id="Path_2173" data-name="Path 2173" d="M499.772,437.834c-.2-.4-.632-.365-.964-.492a8.114,8.114,0,0,1-5.371-7.512c-.047-3.233.005-6.468.014-9.7q25.508-.009,51.016-.02c.546,0,1.091-.037,1.637-.057l-.028.106c0,2.905-.028,5.811.02,8.715a8.336,8.336,0,0,1-5.252,8.394c-.281.127-.555.2-.578.568ZM523.683,431c2.526,0,5.053.023,7.579-.008,1.8-.022,2.846-1.308,2.3-2.741a2.128,2.128,0,0,0-2.248-1.284c-1.768-.028-3.537-.009-5.305-.009-3.368,0-6.737-.017-10.106.008a2.01,2.01,0,0,0-2.068,2.779,2.146,2.146,0,0,0,2.272,1.247C518.63,431.009,521.157,430.995,523.683,431Z" transform="translate(-424.333 -308.234)" fill="#1994da"/>
  <path id="Path_2174" data-name="Path 2174" d="M634.977,130.826a20.264,20.264,0,0,1,6.872.41c3.231.912,4.9,3.3,5.874,6.329v90.859l-7.857.039.028-.106q-.008-17.066-.016-34.132,0-27.622,0-55.243a7.734,7.734,0,0,0-4.88-7.268A1.168,1.168,0,0,0,634.977,130.826Z" transform="translate(-518.123 -116.541)" fill="#b4e9fe"/>
  <path id="Path_2175" data-name="Path 2175" d="M363.173,88.75c-1.039,2.436-2.092,4.867-3.114,7.311a4.958,4.958,0,0,1-5,3.309q-9.219-.031-18.439,0a4.957,4.957,0,0,1-5-3.307c-1.02-2.445-2.074-4.876-3.113-7.312Z" transform="translate(-315.068 -88.731)" fill="#1994da"/>
  <path id="Path_2176" data-name="Path 2176" d="M638.06,420.289l7.857-.039v11.136a19.478,19.478,0,0,1-1.485,3.141,9.675,9.675,0,0,1-5.1,3.439H632.25c.023-.364.3-.441.578-.568A8.335,8.335,0,0,0,638.08,429C638.031,426.1,638.063,423.194,638.06,420.289Z" transform="translate(-516.317 -308.366)" fill="#177db7"/>
  <path id="Path_2177" data-name="Path 2177" d="M295.8,88.713a9.16,9.16,0,0,0-5.938,4.064,15.459,15.459,0,0,0-1.148,3.022c0-2.132.028-4.265-.018-6.4-.013-.593.115-.721.708-.708C291.535,88.741,293.667,88.713,295.8,88.713Z" transform="translate(-288.694 -88.694)" fill="#fdfdfe"/>
  <path id="Path_2178" data-name="Path 2178" d="M653.25,459.83a9.677,9.677,0,0,0,5.1-3.439,19.488,19.488,0,0,0,1.485-3.141c0,1.983-.026,3.966.016,5.947.012.545-.1.661-.65.65C657.216,459.8,655.232,459.83,653.25,459.83Z" transform="translate(-530.23 -330.23)" fill="#fbfcfd"/>
  <path id="Path_2179" data-name="Path 2179" d="M412.343,246.477l-.734-.3A82.314,82.314,0,0,1,397,236.756c-5.732-4.812-10.567-10.31-12.861-17.6-1.819-5.781-1.987-11.536,1.222-16.971a17.268,17.268,0,0,1,25.6-4.967c.2.152.412.284.618.426.77.83,1.59,1.62,2.3,2.5s1.3,1.845,2.065,2.954a21.368,21.368,0,0,1,4.238-5.453,18.6,18.6,0,0,1,7.621-3.71c.349.142.692.3,1.046.423a17.108,17.108,0,0,1,11.1,10.929c2.021,5.9,1.091,11.639-1.429,17.162a39.166,39.166,0,0,1-10.342,13.208,74.389,74.389,0,0,1-13.165,9.063C414.1,245.223,412.921,245.43,412.343,246.477Z" transform="translate(-351.07 -158.166)" fill="#fe815c"/>
  <path id="Path_2180" data-name="Path 2180" d="M346.453,186.164A30.115,30.115,0,0,1,371.12,157.8a2.609,2.609,0,0,1,1.965.116,1.914,1.914,0,0,1,.974,2.028,1.693,1.693,0,0,1-1.435,1.552,30.168,30.168,0,0,0-6.4,1.858c-8.45,3.786-13.546,10.262-15.45,19.284a24.871,24.871,0,0,0-.507,4.626,1.932,1.932,0,1,1-3.814.041C346.446,186.923,346.453,186.543,346.453,186.164Z" transform="translate(-326.96 -134.389)" fill="#79d2f4"/>
  <path id="Path_2181" data-name="Path 2181" d="M501.075,152.764a18.6,18.6,0,0,0-7.621,3.71c0-5.592.061-11.184-.017-16.775a8.111,8.111,0,0,1,8.265-8.281c1.719.086,3.447.018,5.17.02,1.022,2.4,2.057,4.793,3.062,7.2a4.9,4.9,0,0,0,5.008,3.274q9.221-.071,18.443,0a4.989,4.989,0,0,0,5.07-3.388c.895-2.13,1.841-4.238,2.764-6.355a7.734,7.734,0,0,1,4.88,7.268q0,27.622,0,55.243,0,17.066.016,34.132c-.546.02-1.091.057-1.637.057q-25.508.013-51.016.02-.01-11.908-.021-23.817a102.6,102.6,0,0,0,10.885-6.575c5.887-4.272,11.134-9.151,14.572-15.677,2.906-5.517,4.265-11.345,2.622-17.525C519.117,156.255,509.734,150.564,501.075,152.764ZM533.687,178.2a1.921,1.921,0,0,0-2-2.237c-1.458.014-1.754,1.084-2.024,2.176a41.806,41.806,0,0,1-10.252,18.307,61.194,61.194,0,0,1-8.424,7.61,1.928,1.928,0,0,0-.655,2.835c.724,1,1.8,1.115,2.976.3.449-.309.859-.676,1.289-1.013,6.913-5.436,12.62-11.864,16.355-19.909A38.5,38.5,0,0,0,533.687,178.2Z" transform="translate(-424.346 -116.995)" fill="#c8effe"/>
  <path id="Path_2182" data-name="Path 2182" d="M567.6,131.917c-.924,2.118-1.869,4.226-2.764,6.355a4.989,4.989,0,0,1-5.07,3.388q-9.221-.082-18.443,0a4.9,4.9,0,0,1-5.008-3.274c-1-2.406-2.04-4.8-3.062-7.2.544-.029,1.088-.083,1.632-.084q16.348-.042,32.7-.073A1.169,1.169,0,0,1,567.6,131.917Z" transform="translate(-450.726 -116.742)" fill="#1994da"/>
  <path id="Path_2183" data-name="Path 2183" d="M485.726,193.763c8.659-2.2,18.042,3.491,20.446,12.531,1.643,6.179.284,12.008-2.622,17.525-3.438,6.526-8.685,11.405-14.572,15.677a102.6,102.6,0,0,1-10.884,6.575c-.994.435-2.018.814-2.973,1.322a2.461,2.461,0,0,1-2.594,0c-.724-.414-1.5-.731-2.258-1.091.578-1.047,1.752-1.254,2.668-1.756a74.391,74.391,0,0,0,13.165-9.063,39.165,39.165,0,0,0,10.342-13.208c2.521-5.523,3.45-11.265,1.429-17.162a17.108,17.108,0,0,0-11.1-10.929C486.417,194.061,486.074,193.905,485.726,193.763Z" transform="translate(-408.996 -157.994)" fill="#fb6d45"/>
  <path id="Path_2184" data-name="Path 2184" d="M358.893,398.475c2.568,0,5.136-.006,7.7,0,1.291,0,2.137.713,2.156,1.769a1.929,1.929,0,0,1-2.091,2.023q-7.892.031-15.785,0a1.937,1.937,0,0,1-2.11-1.879,1.963,1.963,0,0,1,2.171-1.914C353.59,398.469,356.242,398.475,358.893,398.475Z" transform="translate(-328.495 -293.937)" fill="#c7eefd"/>
  <path id="Path_2185" data-name="Path 2185" d="M563.441,444.534c-2.526,0-5.053.014-7.579-.007a2.146,2.146,0,0,1-2.272-1.247,2.01,2.01,0,0,1,2.068-2.779c3.368-.025,6.737-.008,10.106-.008,1.769,0,3.537-.019,5.305.009a2.129,2.129,0,0,1,2.248,1.284c.55,1.433-.5,2.718-2.3,2.741C568.495,444.558,565.968,444.535,563.441,444.534Z" transform="translate(-464.092 -321.774)" fill="#c7eefd"/>
  <path id="Path_2186" data-name="Path 2186" d="M566.115,265.671a38.493,38.493,0,0,1-2.732,8.071c-3.735,8.045-9.443,14.473-16.355,19.909-.43.338-.84.7-1.289,1.013-1.179.812-2.253.691-2.976-.3a1.928,1.928,0,0,1,.655-2.835,61.2,61.2,0,0,0,8.424-7.61,41.805,41.805,0,0,0,10.252-18.307c.27-1.092.566-2.162,2.024-2.176A1.921,1.921,0,0,1,566.115,265.671Z" transform="translate(-456.774 -204.468)" fill="#79d2f4"/>
</svg>
