<svg id="Group_1128" data-name="Group 1128" xmlns="http://www.w3.org/2000/svg" width="79.426" height="140.22" viewBox="0 0 79.426 140.22">
  <g id="Group_1127" data-name="Group 1127" transform="translate(0 0)">
    <path id="Path_2214" data-name="Path 2214" d="M543.2,267.05a11.959,11.959,0,0,1,6.184,3.49,10.67,10.67,0,0,1,2.572,7.174c.011,3.468,0,6.936,0,10.4q0,54.015.011,108.025c0,4.492-1.676,8.037-5.825,10.006a11.467,11.467,0,0,1-4.735,1.062q-29.165.108-58.324.033a10.154,10.154,0,0,1-10.527-10.565q-.033-59.483-.005-118.972c.005-5.382,3.065-9.177,8.27-10.449a2.7,2.7,0,0,0,.487-.21Zm-62.888,17.3V380.6H544.22V284.347ZM524.6,388.765H499.907v7.49H524.6ZM498.569,277.328h27.287V274.54H498.569v2.788Zm39.03-1.278a2.6,2.6,0,0,0-2.611-2.572,2.558,2.558,0,0,0-2.522,2.638,2.512,2.512,0,0,0,2.517,2.484A2.562,2.562,0,0,0,537.6,276.05Z" transform="translate(-472.544 -267.05)" fill="#1994da"/>
    <path id="Path_2215" data-name="Path 2215" d="M473.949,270.177h63.906v96.254H473.949Z" transform="translate(-466.179 -252.88)" fill="#fff"/>
    <path id="Path_2216" data-name="Path 2216" d="M502.184,289.054v7.49H477.491v-7.49Z" transform="translate(-450.128 -167.339)" fill="#fff"/>
    <path id="Path_2217" data-name="Path 2217" d="M477.249,271.192V268.4h27.287v2.788Z" transform="translate(-451.225 -260.914)" fill="#fff"/>
    <path id="Path_2218" data-name="Path 2218" d="M488.511,270.784a2.562,2.562,0,0,1-2.616,2.55,2.512,2.512,0,0,1-2.517-2.484,2.558,2.558,0,0,1,2.522-2.638A2.6,2.6,0,0,1,488.511,270.784Z" transform="translate(-423.456 -261.785)" fill="#fff"/>
  </g>
  <g id="Group_1126" data-name="Group 1126" transform="translate(7.451 17.84)">
    <path id="Path_2188" data-name="Path 2188" d="M308.939,187.013a10.348,10.348,0,0,0-2.7-.174q-8.151,0-16.3,0a1.408,1.408,0,0,1-1.19-.387V91.606a1.41,1.41,0,0,1,1.19-.387q8.791.012,17.582.01a4.313,4.313,0,0,0,1.418-.179,6.771,6.771,0,0,1,.317,2.581q0,31.446,0,62.892c-1.591,1.047.966,2.148,1.081,4.265.061,1.128.051,2.81,0,3.94-.09,1.992-1.93,3.143-.525,4.1,0,5.139-.567,10.469-.558,15.608A6.749,6.749,0,0,1,308.939,187.013Z" transform="translate(-288.75 -91.05)" fill="#def5fc"/>
    <path id="Path_2192" data-name="Path 2192" d="M383.6,151.219q0-28.91,0-57.82a5.757,5.757,0,0,0-.317-2.373c.8,0,1.6-.013,2.393,0,.951.011,1.278.37,1.28,1.426q.009,5.819.006,11.639.007,3.761.014,7.523,0,7.749,0,15.5v13.616q-.005,1.476-.011,2.952,0,3.583-.009,7.166C385.858,151.164,384.694,150.806,383.6,151.219Z" transform="translate(-363.095 -91.018)" fill="#c7eefd"/>
    <path id="Path_2193" data-name="Path 2193" d="M403.451,137.353a7.914,7.914,0,0,1,11.5-1.092c2.321,1.96,4.674,3.882,7.01,5.823.142.118.261.263.391.4a1.156,1.156,0,0,0,.266.724,7.92,7.92,0,0,1-.9,9.54c-1.213-.982-2.436-1.952-3.636-2.95-2.1-1.745-4.176-3.509-6.264-5.264-1.905-1.6-3.833-3.176-5.707-4.812A18.146,18.146,0,0,1,403.451,137.353Z" transform="translate(-378.955 -120.127)" fill="#978eca"/>
    <path id="Path_2194" data-name="Path 2194" d="M401.137,147.532A18.142,18.142,0,0,0,403.8,149.9c1.874,1.636,3.8,3.211,5.707,4.812,2.088,1.755,4.168,3.519,6.264,5.264,1.2,1,2.423,1.968,3.636,2.95a9.129,9.129,0,0,0,1.726,1.513c.3.239.51.649,1,.571a.917.917,0,0,0,.318.637c0,.57.321,1.158-.058,1.705-.732,1.057-1.309,2.335-2.954,2.154-.11-.012-.233.095-.349.146-.489-.227-.694-.831-1.264-.951a18.627,18.627,0,0,0-2.413-2.1c-4.929-4.2-9.87-8.38-14.889-12.469q-.007-3.455-.014-6.91C400.737,147.284,400.862,147.559,401.137,147.532Z" transform="translate(-376.64 -130.306)" fill="#aba5d5"/>
    <path id="Path_2195" data-name="Path 2195" d="M400.524,276.692q.006-1.356.011-2.712a6.191,6.191,0,0,0,1.629-.59c2.643-1.112,4.349-3.281,6.092-5.408.7.577,1.409,1.134,2.08,1.737.4.361.643.347,1-.088,1.107-1.36,2.263-2.68,3.4-4.015q1.032.879,2.064,1.758a3.53,3.53,0,0,1-4.205,5.618,20.1,20.1,0,0,1-1.849-1.515c-.4-.352-.652-.46-1.062.072a12.829,12.829,0,0,1-8.209,5.063C401.161,276.664,400.841,276.666,400.524,276.692Z" transform="translate(-376.653 -223.417)" fill="#febd86"/>
    <path id="Path_2196" data-name="Path 2196" d="M377,348.637c1.09-.38,2.254-.051,3.353-.345.009.043.016.086.022.129a.231.231,0,0,0-.047.064c-.007.023,0,.069.007.073a1.622,1.622,0,0,1,.981,1.726c0,2.176-.049,4.354.022,6.528a2.627,2.627,0,0,1-1.128,2.659,8.236,8.236,0,0,1-3.217-.286,3.716,3.716,0,0,1-2.093-3.64,24.525,24.525,0,0,0,0-2.868A3.942,3.942,0,0,1,377,348.637Z" transform="translate(-356.49 -288.436)" fill="#fdd1a4"/>
    <path id="Path_2198" data-name="Path 2198" d="M383.6,399.3a7.884,7.884,0,0,0,3.244.343c.047.023.011-.024.058,0,0,7.472.059,15.147.057,22.619,0,1.779-.311,2.3-1.361,2.311-.771.007-1.542,0-2.313-.007a13.1,13.1,0,0,0,.318-3.62Q383.588,410.124,383.6,399.3Z" transform="translate(-363.094 -328.613)" fill="#c8eefd"/>
    <path id="Path_2199" data-name="Path 2199" d="M442.9,243.865c-1.137,1.335-2.293,2.656-3.4,4.015-.355.435-.6.449-1,.088-.671-.6-1.384-1.16-2.08-1.737l-.082-.242a.82.82,0,0,0,.652-.4c1.81-2.169,3.6-4.357,5.437-6.5.344-.4.559-.979,1.161-1.13a18.628,18.628,0,0,1,2.413,2.1Z" transform="translate(-404.822 -201.666)" fill="#5a6d76"/>
    <path id="Path_2200" data-name="Path 2200" d="M399.958,359.971l-.142-.042a2.627,2.627,0,0,0,1.128-2.66c-.07-2.174-.019-4.352-.022-6.528a1.622,1.622,0,0,0-.981-1.726c-.011,0-.014-.051-.008-.073a.232.232,0,0,1,.047-.064c.907,0,1.814-.018,2.719.011a1.508,1.508,0,0,1,1.586,1.626q.024,3.839,0,7.678a1.684,1.684,0,0,1-1.773,1.751C401.664,359.971,400.81,359.963,399.958,359.971Z" transform="translate(-376.096 -288.893)" fill="#febd86"/>
    <path id="Path_2202" data-name="Path 2202" d="M491.738,185.033c-.485.078-.7-.332-1-.571a9.129,9.129,0,0,1-1.726-1.513,7.92,7.92,0,0,0,.9-9.54,1.155,1.155,0,0,1-.266-.724,8.713,8.713,0,0,1,3.8,5.047A7.822,7.822,0,0,1,491.738,185.033Z" transform="translate(-446.247 -150.332)" fill="#847ac1"/>
    <path id="Path_2203" data-name="Path 2203" d="M487.507,237.491c.117-.052.24-.159.349-.146,1.645.181,2.222-1.1,2.954-2.154.379-.548.058-1.136.058-1.705a10.052,10.052,0,0,1,2.365,1.983,1.376,1.376,0,0,1,.345.961,3.54,3.54,0,0,1-1.96,2.918,1.986,1.986,0,0,1-2.536-.5C488.575,238.374,488.033,237.941,487.507,237.491Z" transform="translate(-445.059 -198.149)" fill="#978eca"/>
    <path id="Path_2204" data-name="Path 2204" d="M550.36,198.523c-.531,0-1.063.017-1.593,0a1.216,1.216,0,0,1-1.286-1.29,1.2,1.2,0,0,1,1.243-1.25q1.553-.043,3.107,0a1.288,1.288,0,0,1,1.419,1.287c-.01.734-.562,1.22-1.455,1.255C551.317,198.538,550.838,198.523,550.36,198.523Z" transform="translate(-492.225 -168.634)" fill="#c8eefd"/>
    <path id="Path_2205" data-name="Path 2205" d="M541.437,224.595a1.114,1.114,0,0,1,1.792-1.01,26.1,26.1,0,0,1,2.869,2.386,1.054,1.054,0,0,1-.046,1.576,1.141,1.141,0,0,1-1.653.133c-.91-.683-1.74-1.473-2.607-2.212A.933.933,0,0,1,541.437,224.595Z" transform="translate(-487.463 -190.174)" fill="#c8eefd"/>
    <path id="Path_2206" data-name="Path 2206" d="M542.322,163.507a.84.84,0,0,1-.913-.53,1.209,1.209,0,0,1,.1-1.353,21.139,21.139,0,0,1,2.843-2.422,1.1,1.1,0,0,1,1.628.257,1.077,1.077,0,0,1-.085,1.58c-.906.814-1.87,1.564-2.812,2.338C542.882,163.544,542.631,163.492,542.322,163.507Z" transform="translate(-487.326 -139.53)" fill="#c8eefd"/>
    <path id="Path_2210" data-name="Path 2210" d="M415.458,192.041c-.6.151-.817.729-1.161,1.13-1.84,2.142-3.627,4.331-5.437,6.5a.82.82,0,0,1-.651.4c-.291-.037-.445-.277-.646-.444q-3.5-2.909-6.995-5.822,0-7.117,0-14.235C405.589,183.662,410.529,187.844,415.458,192.041Zm-6.1,4.031a1.564,1.564,0,0,0,1.4-1.477,1.218,1.218,0,0,0-1.248-1.1,1.665,1.665,0,0,0-1.355,1.453A1.164,1.164,0,0,0,409.356,196.073Z" transform="translate(-376.688 -155.749)" fill="#7a8c98"/>
    <path id="Path_2211" data-name="Path 2211" d="M400.569,246.224q3.5,2.912,6.995,5.822c.2.167.354.407.646.444l.082.242c-1.743,2.127-3.449,4.3-6.092,5.408a6.191,6.191,0,0,1-1.629.59Q400.57,252.477,400.569,246.224Z" transform="translate(-376.688 -208.166)" fill="#fdd1a3"/>
    <path id="Path_2212" data-name="Path 2212" d="M437.276,247.339a1.164,1.164,0,0,1-1.2-1.124,1.664,1.664,0,0,1,1.355-1.453,1.218,1.218,0,0,1,1.248,1.1A1.564,1.564,0,0,1,437.276,247.339Z" transform="translate(-404.609 -207.015)" fill="#def5fc"/>
  </g>
</svg>
