<svg xmlns="http://www.w3.org/2000/svg" width="124.299" height="124.299" viewBox="0 0 124.299 124.299">
  <g id="Group_2768" data-name="Group 2768" transform="translate(-897.862 -6328.576)">
    <g id="Group_1123" data-name="Group 1123" transform="translate(897.839 6328.576)">
      <path id="Path_2157" data-name="Path 2157" d="M473.779,236.029a53.042,53.042,0,0,0,3.517,9.677,139.309,139.309,0,0,0,20.1,30.54,131.771,131.771,0,0,0,20.568,19.625c3.05,2.3,6.2,4.443,9.952,5.464h4.37c1.448-.629,3.042-.909,4.364-1.839a3.378,3.378,0,0,0,1.031-.806c-7.219-3.466-13.11-8.744-18.985-14.019a125.8,125.8,0,0,1-9.017-8.952c-2.576-2.831-5.162-5.656-7.573-8.626a171.138,171.138,0,0,1-11.949-16.539c-4.956-7.863-9.556-15.9-12.517-24.774a11.521,11.521,0,0,0-3.617,6.977c-.038.219.07.5-.245.6Z" transform="translate(-473.756 -177.035)" fill="#342937"/>
      <path id="Path_2158" data-name="Path 2158" d="M422.588,109.067c-2.447-2.451-1.762-5.058-.479-7.771,1.171-2.477,2.187-5.027,3.3-7.533.755-1.705.7-1.663-.69-2.9-6.445-5.722-11.092-12.544-12.646-21.186-1.868-10.389.764-19.666,7.326-27.779,6.016-7.436,13.9-12.126,23.05-14.775a41.446,41.446,0,0,1,8.257-1.657,1.272,1.272,0,0,0,.947-.471h-7.283a34.27,34.27,0,0,1-4.6.723c-12.179,2.244-22.5,7.669-30.009,17.743a32.736,32.736,0,0,0-6.567,23.6c.923,8.892,5.068,16.239,11.5,22.354.322.307.645.614.974.912,1.968,1.782,1.971,1.782.913,4.257-1.253,2.932-2.577,5.836-3.749,8.8-1.337,3.382,1.332,7.194,4.69,6.757,1.475-.192,2.927-.56,4.388-.858A5.956,5.956,0,0,0,422.588,109.067Z" transform="translate(-370.539 -25)" fill="#177db7"/>
      <path id="Path_2160" data-name="Path 2160" d="M434.7,200.916c2.961,8.87,7.561,16.911,12.517,24.774a171.118,171.118,0,0,0,11.949,16.539c2.41,2.97,5,5.795,7.573,8.626a125.814,125.814,0,0,0,9.017,8.952c5.875,5.275,11.766,10.554,18.985,14.019,2.62-2.091,5.281-4.135,7.847-6.29a4.409,4.409,0,0,0,.646-6.22q-5.588-7.1-11.328-14.08a4.51,4.51,0,0,0-6.425-.529c-2.043,1.588-4.042,3.232-6.056,4.856-1.744,1.407-2.961,1.4-4.559-.208a172.028,172.028,0,0,1-14.024-16.239c-2.616-3.392-5.2-6.81-7.5-10.434-1.433-2.262-1.255-3.254.837-4.945,1.886-1.525,3.784-3.036,5.665-4.569a4.635,4.635,0,0,0,.737-6.864q-5.38-6.725-10.8-13.416a4.6,4.6,0,0,0-6.853-.747C440.177,196.386,437.284,198.463,434.7,200.916Z" transform="translate(-430.818 -152.172)" fill="#504453"/>
      <g id="Group_1129" data-name="Group 1129" transform="translate(40.943 0)">
        <path id="Path_2155" data-name="Path 2155" d="M236.105,109.067a48.47,48.47,0,0,0,16.214-6.81,3.287,3.287,0,0,1,2.468-.527A52.846,52.846,0,0,0,279.641,99.5c10.043-3.479,18.307-9.339,23.906-18.57a33.589,33.589,0,0,0,4.575-13.05c.032-.235,0-.495.257-.635V60.2c-.3-.184-.217-.494-.255-.763A32.859,32.859,0,0,0,303.8,46.806C296.619,35.012,285.8,28.63,272.524,25.94c-1.72-.348-3.507-.312-5.173-.94h-2.185a1.272,1.272,0,0,1-.947.471,41.446,41.446,0,0,0-8.257,1.657c-9.149,2.648-17.034,7.338-23.05,14.775-6.562,8.113-9.194,17.39-7.326,27.779,1.554,8.642,6.2,15.464,12.646,21.186,1.39,1.234,1.445,1.191.69,2.9-1.11,2.506-2.125,5.056-3.3,7.533C234.343,104.009,233.658,106.616,236.105,109.067Zm29.459-29.353a10.4,10.4,0,0,1-10.423-5.436c-.691-1.4-.467-2.527.6-3.031s1.947-.059,2.669,1.317c1.339,2.553,3.586,3.458,6.324,3.463,2.777,0,5.072-.891,6.437-3.486.712-1.352,1.639-1.8,2.684-1.263s1.266,1.575.6,2.929a9.453,9.453,0,0,1-.944,1.546A10.082,10.082,0,0,1,265.564,79.714Zm17.741-20.107a4.136,4.136,0,0,1-.125,8.272,4.136,4.136,0,1,1,.125-8.272Zm-32.888,4.123a4.1,4.1,0,0,1-4.025,4.149,4.138,4.138,0,1,1-.017-8.275A4.091,4.091,0,0,1,250.417,63.731Z" transform="translate(-225 -25)" fill="#1994da"/>
        <ellipse id="Ellipse_549" data-name="Ellipse 549" cx="33.5" cy="21.5" rx="33.5" ry="21.5" transform="translate(7.806 17.922)" fill="#1994da"/>
      </g>
    </g>
    <path id="Icon_awesome-user" data-name="Icon awesome-user" d="M16.45,18.8a9.4,9.4,0,1,0-9.4-9.4A9.4,9.4,0,0,0,16.45,18.8Zm6.58,2.35H21.8a12.783,12.783,0,0,1-10.707,0H9.87A9.872,9.872,0,0,0,0,31.019v3.055A3.526,3.526,0,0,0,3.525,37.6H29.374A3.526,3.526,0,0,0,32.9,34.074V31.019A9.872,9.872,0,0,0,23.029,21.15Z" transform="translate(960 6346.689)" fill="#fff"/>
  </g>
</svg>
