<svg id="Group_1121" data-name="Group 1121" xmlns="http://www.w3.org/2000/svg" width="176.494" height="139.395" viewBox="0 0 176.494 139.395">
  <path id="Path_2118" data-name="Path 2118" d="M605.775,309.477l-.673,1.382a4.238,4.238,0,0,0-2.349-.339q-22.731,0-45.461,0a8.214,8.214,0,0,1-8.392-8.348q-.015-14.637-.008-29.274c0-2.408-.054-4.817-.083-7.226a.339.339,0,0,1,.089-.223,33.59,33.59,0,0,1,7.031-.381c13.036,0,26.073.092,39.108-.047,5.246-.056,9,1.707,10.738,6.885Zm-50.647-18.792c0,2.583-.015,5.167.005,7.751.016,2.035,1.168,3.412,2.829,3.449,1.713.038,2.911-1.388,2.95-3.511,0-.229,0-.459,0-.689,0-4.65,0-4.622,4.635-4.472.954.031,1.33.285,1.288,1.275-.065,1.547-.063,3.1,0,4.649a2.795,2.795,0,0,0,5.544.454,10.134,10.134,0,0,0,.2-2.046q.027-6.028,0-12.057a24.543,24.543,0,0,0-.142-3.6,2.817,2.817,0,0,0-5.61.415c-.047,1.376-.037,2.756,0,4.133.017.734-.27.959-1,1.026-4.868.449-4.866.467-4.915-4.356,0-.114,0-.229,0-.344-.067-2.126-1.115-3.325-2.9-3.322-1.818,0-2.848,1.159-2.873,3.324C555.106,285.4,555.129,288.044,555.128,290.685Zm23.911,11.485c1.2-.19,2.319-.66,2.594-1.925.438-2.019,1.682-2.467,3.489-2.194a4.367,4.367,0,0,0,1.373,0c1.679-.288,2.581.324,3.1,2.02a2.665,2.665,0,0,0,3.641,1.876,2.739,2.739,0,0,0,1.648-3.795c-2.011-5.483-4.089-10.942-6.166-16.4a3.142,3.142,0,0,0-3.052-2.136,3.18,3.18,0,0,0-3.037,2.153c-.357.843-.66,1.709-.984,2.566-1.746,4.6-3.525,9.2-5.22,13.82A2.888,2.888,0,0,0,579.039,302.17Z" transform="translate(-429.281 -202.583)" fill="#1994da"/>
  <path id="Path_2119" data-name="Path 2119" d="M345.706,298.792c-15.469-.006-30.939-.125-46.406.04-5.546.06-8.847-1.789-10.551-6.964V254.3c.991-2.09,1.968-4.18,4.118-5.4a2.92,2.92,0,0,1,1.4-.514c.21,12.261-.31,24.523.263,36.787a8.8,8.8,0,0,0,8.8,8.068q26.844.032,53.689-.006c.933.9,1.9,1.764,2.786,2.707.412.438.826,1.02.463,1.676a1.871,1.871,0,0,1-1.726,1.161c-.507-.015-1.015.016-1.523.026l-5.68.007Z" transform="translate(-288.75 -193.593)" fill="#177db7"/>
  <path id="Path_2120" data-name="Path 2120" d="M363.494,292.472q-26.844.008-53.689.006a8.8,8.8,0,0,1-8.8-8.068c-.574-12.264-.053-24.526-.263-36.787a2.8,2.8,0,0,1,2.235-.643q23.575.006,47.15,0a4.247,4.247,0,0,1,2.01.341,8.538,8.538,0,0,1,5.535,6.447q-.031,15.977-.062,31.954a1.024,1.024,0,0,0,.345.921,53.853,53.853,0,0,0,5.519,5.506Q363.48,292.311,363.494,292.472ZM323.146,272.41c0-2.812.029-5.625-.011-8.437a2.647,2.647,0,0,0-2.762-2.848A2.683,2.683,0,0,0,317.625,264c-.01.229,0,.459,0,.689-.017,4.663-.016,4.64-4.739,4.393-1-.052-1.483-.394-1.457-1.429.033-1.262.023-2.525,0-3.788a2.637,2.637,0,0,0-2.658-2.737,2.569,2.569,0,0,0-2.825,2.419q-.1,8.781,0,17.562c.019,1.543,1.343,2.473,2.993,2.423a2.55,2.55,0,0,0,2.493-2.682c.014-.459,0-.918,0-1.377,0-4.7,0-4.7,4.726-4.558a1.269,1.269,0,0,0,.172,0c.96-.109,1.342.3,1.3,1.277-.055,1.433-.032,2.869-.008,4.3.032,1.912,1.064,3.033,2.753,3.036s2.743-1.119,2.761-3.026C323.166,277.8,323.147,275.107,323.146,272.41Zm3.814,8.042c-.107,2.055.728,3.006,2.281,3.33a2.425,2.425,0,0,0,3.079-1.81c.536-2.078,1.816-2.508,3.665-2.244a3.505,3.505,0,0,0,1.2,0c1.822-.387,2.71.5,3.178,2.148a2.607,2.607,0,0,0,2.536,1.971,2.962,2.962,0,0,0,2.705-1.81c.607-1.05.118-2.009-.24-2.962-1.874-4.979-3.788-9.943-5.642-14.929-.594-1.6-1.5-2.63-3.337-2.7-1.855-.071-2.662,1.081-3.225,2.543q-2.992,7.766-5.937,15.551A7.487,7.487,0,0,0,326.96,280.452Z" transform="translate(-295.22 -192.836)" fill="#1994da"/>
  <path id="Path_2121" data-name="Path 2121" d="M517.425,129.81a3.644,3.644,0,0,1,2.446-.622c15.558,0,31.115-.027,46.673.015a8.4,8.4,0,0,1,8.093,8.6c.048,11.252.017,22.5.014,33.756a7.285,7.285,0,0,1-.682,3.159c-15.721,0-31.443-.045-47.164.016a8.966,8.966,0,0,1-9.1-9.021c.291-11.181.093-22.374.1-33.563A4.27,4.27,0,0,0,517.425,129.81ZM524,154.456h.006c0,2.869-.045,5.74.017,8.608a2.651,2.651,0,0,0,2.908,2.709,2.574,2.574,0,0,0,2.623-2.768c.037-1.549.04-3.1,0-4.648-.021-.856.236-1.274,1.169-1.233,1.26.055,2.526.051,3.786,0,.9-.036,1.227.307,1.2,1.2-.048,1.491-.028,2.984-.006,4.476.027,1.848.988,2.93,2.6,2.971,1.821.047,2.928-1.048,2.952-3.022.033-2.811.011-5.624.01-8.436,0-2.754.039-5.51-.024-8.264a2.66,2.66,0,0,0-2.753-2.7,2.71,2.71,0,0,0-2.775,2.686c-.03.4-.011.8-.012,1.2-.008,4.455-.008,4.408-4.514,4.358-1.328-.015-1.713-.523-1.632-1.747.072-1.086.027-2.18.011-3.27-.029-2.043-1.038-3.219-2.754-3.232s-2.786,1.173-2.8,3.187C523.983,149.176,524,151.816,524,154.456Zm31-10.79c-1.9-.028-2.965.638-3.467,1.916-2.177,5.55-4.325,11.112-6.4,16.7a2.826,2.826,0,0,0,5.269,2.041c.23-.46.364-.966.575-1.436.159-.355.252-.864.727-.874a40,40,0,0,1,5.333.032c1.162.131.973,1.546,1.443,2.352a2.851,2.851,0,0,0,3.615,1.454,2.727,2.727,0,0,0,1.7-3.486c-2.085-5.585-4.214-11.155-6.341-16.725A2.808,2.808,0,0,0,555,143.667Z" transform="translate(-412.322 -129.179)" fill="#def5fc"/>
  <path id="Path_2122" data-name="Path 2122" d="M500.474,130.552a4.27,4.27,0,0,1,.378,2.342c0,11.189.2,22.382-.1,33.563a8.966,8.966,0,0,0,9.1,9.021c15.721-.061,31.443-.018,47.164-.016A8.044,8.044,0,0,1,549.171,181c-10.606.024-21.212.01-31.819.014-.8,0-1.6.017-2.407.025l-5.716,0-5.648.06q-7.467-.045-14.934-.089c-.973-.006-1.984.123-2.456-1.068s.4-1.787,1.064-2.474q2.145-2.219,4.305-4.425c1.856-1.678,4.137-3.124,3.4-6.219l.007-5.645c.008-7.569,0-15.139.029-22.708A8.263,8.263,0,0,1,500.474,130.552Z" transform="translate(-395.37 -129.921)" fill="#c7eefd"/>
  <path id="Path_2123" data-name="Path 2123" d="M462.106,197.2q0,2.822-.006,5.644c-11.055,0-22.111.022-33.166-.01a3.88,3.88,0,0,0-3.577,1.572q-.059-3.333-.118-6.666a6.5,6.5,0,0,1,3.517-.53Q445.43,197.189,462.106,197.2Z" transform="translate(-362.505 -165.937)" fill="#5d5360"/>
  <path id="Path_2124" data-name="Path 2124" d="M418.378,198.377q.059,3.333.118,6.666c-.062.682-.175,1.364-.176,2.046q-.016,10.214,0,20.429a.431.431,0,0,1-.224-.015,8.539,8.539,0,0,0-5.536-6.446c0-4.879-.038-9.758,0-14.636A8.282,8.282,0,0,1,418.378,198.377Z" transform="translate(-355.646 -166.572)" fill="#504453"/>
  <path id="Path_2125" data-name="Path 2125" d="M536.474,240.4l5.716,0q.021,5.872.042,11.742a.341.341,0,0,0-.088.223,8.978,8.978,0,0,0-5.67,6.879Z" transform="translate(-422.615 -189.281)" fill="#615764"/>
  <path id="Path_2126" data-name="Path 2126" d="M525.979,273.313a8.978,8.978,0,0,1,5.67-6.879c.029,2.409.08,4.818.082,7.226q.015,14.637.008,29.274a8.214,8.214,0,0,0,8.392,8.348q22.73.006,45.461,0a4.238,4.238,0,0,1,2.349.339,8.255,8.255,0,0,1-8.248,5.509q-22.957.015-45.914.006c-.688,0-1.375.024-2.062.036l-5.776,0-5.592.021c-.282-.018-.564-.06-.845-.051-.943.029-1.825-.043-2.284-1.06-.516-1.142.261-1.785.93-2.481.742-.772,1.471-1.557,2.206-2.336,1.562-1.514,3.1-3.057,4.7-4.53a2.777,2.777,0,0,0,.894-2.283c-.035-4.531-.022-9.063-.014-13.6Q525.947,282.085,525.979,273.313Z" transform="translate(-412.12 -203.349)" fill="#177db7"/>
  <path id="Path_2127" data-name="Path 2127" d="M412.617,358.063l5.638.013q.033,12.317.068,24.634c.009,3,.89,3.89,3.895,3.891q18.78.005,37.56,0c2.583,0,5.167-.048,7.75-.074l7.064.121a8.051,8.051,0,0,1-7.666,5.569c-4.361.076-8.724.03-13.085.031q-15.84,0-31.681,0c-6.2,0-9.591-3.391-9.587-9.561Q412.581,370.373,412.617,358.063Z" transform="translate(-355.661 -252.864)" fill="#4d4150"/>
  <path id="Path_2128" data-name="Path 2128" d="M539.2,396.788l-7.064-.121c1.551-.736,2-1.991,1.982-3.652-.064-5.394-.025-10.79-.027-16.184l5.776,0q0,8.239-.01,16.479A6.5,6.5,0,0,1,539.2,396.788Z" transform="translate(-420.273 -263.005)" fill="#615764"/>
  <path id="Path_2129" data-name="Path 2129" d="M562.549,307.637c0-2.641-.023-5.282.008-7.923.025-2.165,1.055-3.321,2.873-3.324,1.788,0,2.836,1.2,2.9,3.322,0,.115,0,.23,0,.344.048,4.822.047,4.8,4.915,4.356.73-.068,1.017-.292,1-1.026-.033-1.377-.043-2.757,0-4.133a2.817,2.817,0,0,1,5.61-.415,24.536,24.536,0,0,1,.142,3.6q.021,6.028,0,12.057a10.134,10.134,0,0,1-.2,2.046,2.795,2.795,0,0,1-5.544-.454c-.064-1.548-.066-3.1,0-4.649.042-.99-.334-1.244-1.288-1.275-4.631-.151-4.631-.179-4.635,4.472,0,.23,0,.46,0,.689-.039,2.123-1.237,3.549-2.95,3.511-1.661-.037-2.813-1.414-2.829-3.449C562.533,312.8,562.548,310.22,562.549,307.637Z" transform="translate(-436.701 -219.535)" fill="#fefcfc"/>
  <path id="Path_2130" data-name="Path 2130" d="M611.268,319.33a2.886,2.886,0,0,1-2.613-4.016c1.7-4.623,3.475-9.215,5.22-13.82.324-.857.627-1.723.984-2.566a3.18,3.18,0,0,1,3.037-2.153,3.142,3.142,0,0,1,3.052,2.136c2.077,5.458,4.155,10.917,6.166,16.4a2.739,2.739,0,0,1-1.648,3.795,2.665,2.665,0,0,1-3.641-1.876c-.52-1.7-1.421-2.308-3.1-2.02a4.368,4.368,0,0,1-1.373,0c-1.807-.273-3.051.175-3.489,2.194C613.589,318.671,612.472,319.141,611.268,319.33Zm6.492-12.253c-.162,1.032-1.011,1.557-.361,2.28a1.149,1.149,0,0,0,1.077-.087C618.832,308.585,618.3,308.041,617.76,307.076Z" transform="translate(-461.512 -219.745)" fill="#fefcfc"/>
  <path id="Path_2131" data-name="Path 2131" d="M477.2,287.281c-.735.78-1.464,1.564-2.206,2.336-.669.7-1.446,1.339-.93,2.482.459,1.017,1.341,1.089,2.284,1.06.281-.009.563.033.845.051,0,1.779.047,3.558,0,5.336a8.621,8.621,0,0,1-8.814,8.77q-11.186-.163-22.377,0a8.535,8.535,0,0,1-8.762-8.63c-.109-4.7-.012-9.409-.005-14.114.508-.01,1.016-.04,1.523-.026a1.871,1.871,0,0,0,1.726-1.161c.363-.656-.051-1.238-.463-1.676-.886-.943-1.853-1.809-2.786-2.707-.01-.108-.017-.216-.023-.324,0-15.832.037-31.665-.017-47.5-.017-5.175,4.02-9.4,8.97-9.117,5.718.322,11.468.068,17.2.085.6,0,1.278-.227,1.781.346q-2.154,2.212-4.305,4.425c-.663.686-1.538,1.277-1.064,2.474s1.483,1.062,2.456,1.068q7.467.041,14.934.088Q477.19,258.913,477.2,287.281ZM457.012,270.4c3.734,0,7.468.018,11.2-.008,2.025-.014,3.164-1.068,3.169-2.828a2.809,2.809,0,0,0-3.114-2.934q-11.029-.066-22.059,0c-2.071.011-3.224,1.217-3.166,3.053.055,1.726,1.2,2.7,3.283,2.714C449.889,270.41,453.45,270.4,457.012,270.4Zm.108-22.758c3.667,0,7.334.013,11-.005,2.115-.011,3.253-1.055,3.246-2.911-.006-1.745-1.138-2.871-3.145-2.881q-11-.057-22,0c-2.082.011-3.225,1.2-3.158,3.038.065,1.764,1.184,2.744,3.228,2.755C449.9,247.651,453.509,247.637,457.119,247.637Zm.074,11.388c3.614,0,7.229.007,10.843,0,2.185-.006,3.273-.949,3.312-2.829s-1.072-3-3.187-3.005q-10.929-.052-21.858,0c-2.137.009-3.249,1.1-3.226,2.967.023,1.89,1.112,2.86,3.272,2.868C449.964,259.034,453.579,259.025,457.193,259.025Zm5.547,22.752c1.776,0,3.552.008,5.328,0,2.026-.012,3.107-.847,3.273-2.506a2.736,2.736,0,0,0-2.616-3.191,51.87,51.87,0,0,0-11.969.174,2.55,2.55,0,0,0-2.294,3.039,2.678,2.678,0,0,0,2.951,2.48C459.188,281.8,460.964,281.776,462.74,281.777Z" transform="translate(-368.966 -179.364)" fill="#fefefe"/>
  <path id="Path_2132" data-name="Path 2132" d="M430.617,358.077c-.007,4.7-.1,9.412.005,14.114a8.535,8.535,0,0,0,8.762,8.63q11.187-.146,22.377,0a8.621,8.621,0,0,0,8.814-8.77c.044-1.778,0-3.557,0-5.336l5.592-.021c0,5.395-.037,10.79.027,16.185.02,1.661-.431,2.916-1.981,3.652-2.583.026-5.167.072-7.75.074q-18.78.012-37.56,0c-3,0-3.886-.886-3.895-3.891q-.037-12.317-.068-24.634Z" transform="translate(-362.343 -252.871)" fill="#eae8ea"/>
  <path id="Path_2133" data-name="Path 2133" d="M458.622,215.689c-.5-.572-1.178-.344-1.781-.346-5.737-.017-11.487.237-17.2-.085-4.95-.278-8.987,3.942-8.97,9.117.054,15.832.018,31.665.017,47.5a53.856,53.856,0,0,1-5.519-5.506q-.029-16.431-.058-32.861,0-10.215,0-20.429c0-.682.114-1.364.176-2.046a3.881,3.881,0,0,1,3.577-1.572c11.055.032,22.111.013,33.166.01C462.758,212.566,460.477,214.011,458.622,215.689Z" transform="translate(-362.432 -172.561)" fill="#ebe9eb"/>
  <path id="Path_2134" data-name="Path 2134" d="M329.223,289.038c0,2.7.02,5.395-.006,8.093-.018,1.906-1.072,3.029-2.761,3.026s-2.721-1.124-2.753-3.036c-.024-1.435-.047-2.872.008-4.3.037-.977-.345-1.386-1.3-1.277a1.264,1.264,0,0,1-.172,0c-4.725-.138-4.725-.138-4.726,4.558,0,.459.01.919,0,1.378a2.55,2.55,0,0,1-2.493,2.682c-1.65.05-2.974-.881-2.993-2.423q-.106-8.78,0-17.562a2.569,2.569,0,0,1,2.825-2.419,2.637,2.637,0,0,1,2.658,2.737c.022,1.263.032,2.526,0,3.788-.026,1.035.452,1.377,1.457,1.429,4.723.247,4.722.27,4.739-4.393,0-.23-.006-.46,0-.689a2.683,2.683,0,0,1,2.749-2.871,2.647,2.647,0,0,1,2.762,2.848C329.252,283.412,329.222,286.225,329.223,289.038Z" transform="translate(-301.296 -209.464)" fill="#fefefe"/>
  <path id="Path_2135" data-name="Path 2135" d="M357.8,297.453a7.475,7.475,0,0,1,.265-.915q2.957-7.78,5.937-15.551c.563-1.463,1.371-2.614,3.225-2.543,1.837.07,2.743,1.1,3.337,2.7,1.854,4.986,3.768,9.95,5.642,14.929.359.953.847,1.912.24,2.962a2.962,2.962,0,0,1-2.705,1.81,2.607,2.607,0,0,1-2.536-1.971c-.468-1.653-1.356-2.534-3.178-2.148a3.508,3.508,0,0,1-1.2,0c-1.849-.264-3.129.166-3.665,2.244a2.426,2.426,0,0,1-3.079,1.81C358.525,300.459,357.689,299.508,357.8,297.453Zm9.383-8.564c-.445.66-.876,1.229-.437,1.871a.771.771,0,0,0,1.072-.028C368.194,290.033,367.576,289.55,367.179,288.889Z" transform="translate(-326.056 -209.837)" fill="#fefefe"/>
  <path id="Path_2136" data-name="Path 2136" d="M424.775,261.762q.029,16.43.058,32.861a1.025,1.025,0,0,1-.345-.921q.032-15.977.062-31.954A.438.438,0,0,0,424.775,261.762Z" transform="translate(-362.1 -200.817)" fill="#d5bcee"/>
  <path id="Path_2137" data-name="Path 2137" d="M531.719,171.117c0-2.64-.017-5.28.005-7.92.017-2.014,1.084-3.2,2.8-3.187s2.725,1.188,2.754,3.232c.016,1.09.061,2.185-.011,3.27-.081,1.223.3,1.732,1.632,1.747,4.507.051,4.506.1,4.514-4.358,0-.4-.018-.805.012-1.2a2.71,2.71,0,0,1,2.775-2.686,2.66,2.66,0,0,1,2.753,2.7c.064,2.753.023,5.509.024,8.264,0,2.812.023,5.625-.01,8.436-.023,1.973-1.131,3.068-2.952,3.022-1.609-.041-2.571-1.123-2.6-2.971-.022-1.492-.042-2.986.006-4.476.029-.893-.3-1.237-1.2-1.2-1.26.051-2.526.054-3.786,0-.933-.04-1.19.377-1.169,1.233.039,1.548.036,3.1,0,4.648a2.574,2.574,0,0,1-2.623,2.768,2.651,2.651,0,0,1-2.909-2.709c-.062-2.868-.017-5.739-.017-8.608Z" transform="translate(-420.04 -145.839)" fill="#fefefe"/>
  <path id="Path_2138" data-name="Path 2138" d="M587.371,160.7a2.808,2.808,0,0,1,2.453,1.977c2.127,5.57,4.256,11.139,6.341,16.725a2.727,2.727,0,0,1-1.7,3.486,2.851,2.851,0,0,1-3.615-1.454c-.47-.806-.281-2.22-1.443-2.352a39.994,39.994,0,0,0-5.333-.032c-.475.01-.568.519-.727.874-.211.47-.345.976-.575,1.436a2.826,2.826,0,0,1-5.269-2.041c2.071-5.59,4.219-11.152,6.4-16.7C584.405,161.337,585.469,160.671,587.371,160.7Zm-.443,10.225c-.557.944-1.152,1.537-.7,2.288a.831.831,0,0,0,1.217.061C588,172.523,587.148,171.983,586.927,170.924Z" transform="translate(-444.689 -146.211)" fill="#fefefe"/>
  <path id="Path_2139" data-name="Path 2139" d="M524.211,297.2q-.013-28.368-.026-56.734l5.648-.06v18.841q-.024,8.772-.046,17.545c-.008,4.532-.021,9.064.014,13.6a2.777,2.777,0,0,1-.894,2.283C527.308,294.145,525.773,295.688,524.211,297.2Z" transform="translate(-415.975 -189.285)" fill="#ebe9eb"/>
  <path id="Path_2140" data-name="Path 2140" d="M627.993,319.187c.544.964,1.071,1.509.716,2.193a1.149,1.149,0,0,1-1.077.087C626.982,320.744,627.831,320.219,627.993,319.187Z" transform="translate(-471.745 -231.856)" fill="#1994da"/>
  <path id="Path_2141" data-name="Path 2141" d="M463.888,320.416c-3.562,0-7.123.014-10.685-.006-2.078-.011-3.228-.987-3.283-2.714-.058-1.836,1.095-3.042,3.166-3.053q11.029-.061,22.059,0a2.809,2.809,0,0,1,3.114,2.934c-.006,1.76-1.144,2.814-3.169,2.828C471.356,320.435,467.622,320.416,463.888,320.416Z" transform="translate(-375.842 -229.384)" fill="#1994da" opacity="0.29"/>
  <path id="Path_2142" data-name="Path 2142" d="M464.015,270.872c-3.61,0-7.22.013-10.83-.005-2.045-.011-3.164-.99-3.228-2.755-.068-1.839,1.075-3.028,3.158-3.038q11-.058,22,0c2.007.01,3.139,1.137,3.145,2.881.007,1.856-1.131,2.9-3.246,2.911C471.349,270.885,467.681,270.872,464.015,270.872Z" transform="translate(-375.861 -202.599)" fill="#1994da" opacity="0.29"/>
  <path id="Path_2143" data-name="Path 2143" d="M464.11,295.607c-3.614,0-7.229.009-10.843,0-2.161-.007-3.249-.978-3.272-2.868-.023-1.864,1.089-2.958,3.226-2.967q10.929-.048,21.858,0c2.115.01,3.226,1.137,3.187,3.005s-1.127,2.822-3.312,2.828C471.339,295.614,467.725,295.607,464.11,295.607Z" transform="translate(-375.883 -215.945)" fill="#f7f8fb"/>
  <path id="Path_2144" data-name="Path 2144" d="M483.015,344.993c-1.776,0-3.552.023-5.328-.006a2.678,2.678,0,0,1-2.951-2.48,2.55,2.55,0,0,1,2.294-3.039A51.872,51.872,0,0,1,489,339.294a2.736,2.736,0,0,1,2.616,3.191c-.166,1.659-1.247,2.494-3.273,2.506C486.566,345,484.791,344.993,483.015,344.993Z" transform="translate(-389.241 -242.58)" fill="#ebe9eb"/>
  <path id="Path_2145" data-name="Path 2145" d="M377.492,301.173c.4.661,1.015,1.144.635,1.842a.771.771,0,0,1-1.072.029C376.616,302.4,377.046,301.833,377.492,301.173Z" transform="translate(-336.369 -222.121)" fill="#1994da"/>
  <path id="Path_2146" data-name="Path 2146" d="M597.21,182.946c.22,1.059,1.076,1.6.517,2.349a.831.831,0,0,1-1.218-.061C596.058,184.483,596.653,183.891,597.21,182.946Z" transform="translate(-454.971 -158.234)" fill="#def5fc"/>
</svg>
