<svg xmlns="http://www.w3.org/2000/svg" width="105.929" height="124.343" viewBox="0 0 105.929 124.343">
  <g id="Group_1122" data-name="Group 1122" transform="translate(0)">
    <path id="Path_2148" data-name="Path 2148" d="M482.971,25c2.412.645,4.184,2.253,5.976,3.874a49.33,49.33,0,0,0,25.876,12.18c2.717.437,5.461.54,8.18.921a13.392,13.392,0,0,1,11.238,12.549q.395,10.133.163,20.264c-.243,10.065-1.293,20.038-4.312,29.714a63.011,63.011,0,0,1-26.487,35.12,89.022,89.022,0,0,1-18.765,9.123,6.971,6.971,0,0,1-3.309.557q0-15.514,0-31.027a42.131,42.131,0,0,0,8.821-1.362,31,31,0,0,0,21.785-34.378,30.479,30.479,0,0,0-14.118-21.59,31.878,31.878,0,0,0-16.488-4.872q-.007-15.537-.014-31.073Z" transform="translate(-428.565 -24.998)" fill="#1994da"/>
    <path id="Path_2149" data-name="Path 2149" d="M316.872,118.273q0,15.514,0,31.027c-2.432.069-4.546-1.036-6.715-1.879a77.227,77.227,0,0,1-23.061-13.6,63.067,63.067,0,0,1-19.29-30.929,106.966,106.966,0,0,1-3.646-23.914c-.441-8.169-.227-16.339.006-24.508a13.211,13.211,0,0,1,11.587-12.5,80.7,80.7,0,0,0,14.328-2.335A49.191,49.191,0,0,0,308.7,29.587c.061-.053.121-.107.181-.162,1.951-1.8,3.868-3.658,6.521-4.427h1.457q.007,15.537.013,31.073a.41.41,0,0,0-.037.147c-.647.028-1.294.046-1.94.084a29.552,29.552,0,0,0-18.18,7.4,30.15,30.15,0,0,0-10.721,25.4,29.459,29.459,0,0,0,7.377,18.19,30.375,30.375,0,0,0,23.464,10.827A.415.415,0,0,0,316.872,118.273Z" transform="translate(-263.909 -24.998)" fill="#1994da"/>
    <path id="Path_2150" data-name="Path 2150" d="M481.415,152.847a.409.409,0,0,1,.038-.147,31.878,31.878,0,0,1,16.488,4.872,30.479,30.479,0,0,1,14.118,21.59,31,31,0,0,1-21.785,34.378,42.133,42.133,0,0,1-8.821,1.362.419.419,0,0,1-.038-.147q.012-10.626.025-21.252l.254-.409c1.038-1.017,2.085-2.025,3.113-3.052,3.546-3.539,7.109-7.062,10.62-10.636a3.647,3.647,0,0,0-1.688-6.207,4,4,0,0,0-3.9,1.419q-4.169,4.142-8.332,8.292c-.021-.565-.059-1.129-.06-1.694Q481.426,167.031,481.415,152.847Z" transform="translate(-428.49 -121.627)" fill="#e0eaef"/>
    <path id="Path_2151" data-name="Path 2151" d="M385.346,153.3q.014,14.185.031,28.369c0,.565.039,1.129.059,1.694l-.094.387c-1.5,1.468-3.055,2.892-4.492,4.424-.76.81-1.24.744-1.932-.04-.883-1-1.868-1.908-2.82-2.845a3.569,3.569,0,0,0-5.208-.249,3.725,3.725,0,0,0,.055,5.321q3.154,3.2,6.355,6.353a3.524,3.524,0,0,0,5.19.015c.964-.92,1.921-1.848,2.881-2.773q-.012,10.626-.025,21.252a30.375,30.375,0,0,1-23.464-10.827,29.458,29.458,0,0,1-7.377-18.19,30.15,30.15,0,0,1,10.72-25.4,29.552,29.552,0,0,1,18.18-7.4C384.053,153.349,384.7,153.33,385.346,153.3Z" transform="translate(-332.421 -122.083)" fill="#fdfefe"/>
    <path id="Path_2152" data-name="Path 2152" d="M481.4,246.715l.094-.387q4.166-4.146,8.332-8.292a4,4,0,0,1,3.9-1.419,3.647,3.647,0,0,1,1.688,6.207c-3.51,3.574-7.074,7.1-10.62,10.636-1.029,1.026-2.075,2.035-3.113,3.051-.35-.37-.226-.833-.23-1.261C481.427,252.4,481.416,249.56,481.4,246.715Z" transform="translate(-428.478 -185.045)" fill="#6fa3a8"/>
    <path id="Path_2153" data-name="Path 2153" d="M433.066,278.442c.016,2.845.028,5.69.052,8.535,0,.429-.12.891.23,1.261l-.254.41c-.96.924-1.917,1.852-2.881,2.773a3.524,3.524,0,0,1-5.19-.015q-3.2-3.15-6.354-6.353a3.725,3.725,0,0,1-.055-5.321,3.569,3.569,0,0,1,5.208.249c.953.936,1.938,1.846,2.82,2.845.692.783,1.173.85,1.932.04C430.011,281.334,431.563,279.91,433.066,278.442Z" transform="translate(-380.145 -216.772)" fill="#b3d0d6"/>
  </g>
</svg>
