<svg xmlns="http://www.w3.org/2000/svg" width="112" height="112" viewBox="0 0 112 112">
  <g id="Group_2767" data-name="Group 2767" transform="translate(-960 -5022)">
    <circle id="Ellipse_545" data-name="Ellipse 545" cx="56" cy="56" r="56" transform="translate(960 5022)" fill="#58c83c" opacity="0.08"/>
    <path id="Icon_awesome-lock" data-name="Icon awesome-lock" d="M28.125,15.75H26.438V10.688a10.688,10.688,0,0,0-21.375,0V15.75H3.375A3.376,3.376,0,0,0,0,19.125v13.5A3.376,3.376,0,0,0,3.375,36h24.75A3.376,3.376,0,0,0,31.5,32.625v-13.5A3.376,3.376,0,0,0,28.125,15.75Zm-7.312,0H10.688V10.688a5.063,5.063,0,0,1,10.125,0Z" transform="translate(1000.25 5060)" fill="#58c83c"/>
  </g>
</svg>
