<svg xmlns="http://www.w3.org/2000/svg" width="59.769" height="59.765" viewBox="0 0 59.769 59.765">
  <path id="Icon_ionic-ios-call" data-name="Icon ionic-ios-call" d="M62.533,51.3a50.2,50.2,0,0,0-10.487-7.017c-3.143-1.509-4.294-1.478-6.519.124-1.852,1.338-3.05,2.583-5.181,2.116-2.132-.451-6.333-3.641-10.409-7.7-4.077-4.077-7.251-8.278-7.7-10.409-.451-2.147.794-3.33,2.116-5.181,1.6-2.225,1.649-3.376.124-6.519-1.291-2.723-4.714-8.2-7.017-10.487-2.287-2.287-2.8-1.789-4.061-1.338A23.109,23.109,0,0,0,9.678,6.862a11.218,11.218,0,0,0-4.466,4.714C4.325,13.49,3.3,17.053,8.526,26.358a82.479,82.479,0,0,0,14.5,19.34h0l.016.016.016.016h0a82.8,82.8,0,0,0,19.34,14.5c9.3,5.228,12.868,4.2,14.781,3.314A11.027,11.027,0,0,0,61.9,59.079a23.109,23.109,0,0,0,1.976-3.719C64.322,54.1,64.836,53.587,62.533,51.3Z" transform="translate(-4.49 -4.502)" fill="#0d86ee"/>
</svg>
