<svg xmlns="http://www.w3.org/2000/svg" width="59.77" height="59.77" viewBox="0 0 59.77 59.77">
  <path id="Icon_feather-message-circle" data-name="Icon feather-message-circle" d="M64.269,32.725a27.826,27.826,0,0,1-2.988,12.618A28.224,28.224,0,0,1,36.045,60.949,27.826,27.826,0,0,1,23.427,57.96L4.5,64.269l6.309-18.927A27.826,27.826,0,0,1,7.821,32.724,28.224,28.224,0,0,1,23.427,7.489,27.826,27.826,0,0,1,36.045,4.5h1.66A28.158,28.158,0,0,1,64.269,31.064Z" transform="translate(-4.5 -4.5)" fill="#0d86ee"/>
</svg>
