<svg xmlns="http://www.w3.org/2000/svg" xmlns:xlink="http://www.w3.org/1999/xlink" width="575" height="979" viewBox="0 0 575 979">
  <defs>
    <clipPath id="clip-path">
      <rect id="Rectangle_340" data-name="Rectangle 340" width="575" height="979" transform="translate(212 3691)" fill="#fff" stroke="#707070" stroke-width="1"/>
    </clipPath>
    <filter id="Rectangle_344" x="74" y="295" width="503" height="202" filterUnits="userSpaceOnUse">
      <feOffset dy="3" input="SourceAlpha"/>
      <feGaussianBlur stdDeviation="9" result="blur"/>
      <feFlood flood-opacity="0.161"/>
      <feComposite operator="in" in2="blur"/>
      <feComposite in="SourceGraphic"/>
    </filter>
    <filter id="Rectangle_345" x="74" y="467" width="423" height="160" filterUnits="userSpaceOnUse">
      <feOffset dy="3" input="SourceAlpha"/>
      <feGaussianBlur stdDeviation="9" result="blur-2"/>
      <feFlood flood-opacity="0.161"/>
      <feComposite operator="in" in2="blur-2"/>
      <feComposite in="SourceGraphic"/>
    </filter>
    <filter id="Rectangle_349" x="74" y="599" width="423" height="160" filterUnits="userSpaceOnUse">
      <feOffset dy="3" input="SourceAlpha"/>
      <feGaussianBlur stdDeviation="9" result="blur-3"/>
      <feFlood flood-opacity="0.161"/>
      <feComposite operator="in" in2="blur-3"/>
      <feComposite in="SourceGraphic"/>
    </filter>
    <filter id="Rectangle_350" x="74" y="729" width="423" height="160" filterUnits="userSpaceOnUse">
      <feOffset dy="3" input="SourceAlpha"/>
      <feGaussianBlur stdDeviation="9" result="blur-4"/>
      <feFlood flood-opacity="0.161"/>
      <feComposite operator="in" in2="blur-4"/>
      <feComposite in="SourceGraphic"/>
    </filter>
  </defs>
  <g id="Mobile" transform="translate(-212 -3691)" clip-path="url(#clip-path)">
    <g id="Group_327" data-name="Group 327" transform="translate(120.303 3689.779)">
      <g id="Group_322" data-name="Group 322" transform="translate(147.697 61.439)">
        <g id="Group_261" data-name="Group 261" transform="translate(3)">
          <g id="Group_260" data-name="Group 260">
            <rect id="Rectangle_330" data-name="Rectangle 330" width="452.719" height="896.494" rx="57" fill="#455a64"/>
          </g>
        </g>
        <g id="Group_288" data-name="Group 288" transform="translate(455.787 194.855)">
          <g id="Group_287" data-name="Group 287" transform="translate(0)">
            <path id="Rectangle_332" data-name="Rectangle 332" d="M1.066,0h1.9a0,0,0,0,1,0,0V103.035a0,0,0,0,1,0,0h-1.9A1.066,1.066,0,0,1,0,101.969V1.066A1.066,1.066,0,0,1,1.066,0Z" transform="translate(2.967 103.035) rotate(180)" fill="#455a64"/>
          </g>
        </g>
        <g id="Group_290" data-name="Group 290" transform="translate(0 258.353)">
          <g id="Group_289" data-name="Group 289">
            <path id="Rectangle_333" data-name="Rectangle 333" d="M1.066,0H3.077a0,0,0,0,1,0,0V65.235a0,0,0,0,1,0,0H1.066A1.066,1.066,0,0,1,0,64.169V1.066A1.066,1.066,0,0,1,1.066,0Z" fill="#455a64"/>
          </g>
        </g>
        <g id="Group_292" data-name="Group 292" transform="translate(0 173.127)">
          <g id="Group_291" data-name="Group 291" transform="translate(0 0)">
            <path id="Rectangle_334" data-name="Rectangle 334" d="M1.066,0H3.077a0,0,0,0,1,0,0V65.235a0,0,0,0,1,0,0H1.066A1.066,1.066,0,0,1,0,64.169V1.066A1.066,1.066,0,0,1,1.066,0Z" fill="#455a64"/>
          </g>
        </g>
        <g id="Group_294" data-name="Group 294" transform="translate(0.424 109.154)">
          <g id="Group_293" data-name="Group 293">
            <path id="Rectangle_335" data-name="Rectangle 335" d="M.948,0H2.653a0,0,0,0,1,0,0V30.332a0,0,0,0,1,0,0H.947A.947.947,0,0,1,0,29.384V.948A.948.948,0,0,1,.948,0Z" fill="#455a64"/>
          </g>
        </g>
        <rect id="Rectangle_341" data-name="Rectangle 341" width="411" height="854" rx="43" transform="translate(24 25.782)" fill="#fff"/>
        <path id="Rectangle_343" data-name="Rectangle 343" d="M43,0H368a43,43,0,0,1,43,43V213a0,0,0,0,1,0,0H0a0,0,0,0,1,0,0V43A43,43,0,0,1,43,0Z" transform="translate(24 25.782)" fill="#0a87fa"/>
        <rect id="Rectangle_342" data-name="Rectangle 342" width="180" height="55" rx="19" transform="translate(139 2.782)" fill="#455a64"/>
        <g id="Group_328" data-name="Group 328" transform="translate(336.975 35.373)">
          <g id="Group_303" data-name="Group 303" transform="translate(0 0.763)">
            <g id="Group_296" data-name="Group 296" transform="translate(0 6.216)">
              <g id="Group_295" data-name="Group 295">
                <rect id="Rectangle_336" data-name="Rectangle 336" width="3.108" height="4.36" fill="#fff"/>
              </g>
            </g>
            <g id="Group_298" data-name="Group 298" transform="translate(5.061 4.274)">
              <g id="Group_297" data-name="Group 297">
                <rect id="Rectangle_337" data-name="Rectangle 337" width="3.108" height="6.302" fill="#fff"/>
              </g>
            </g>
            <g id="Group_300" data-name="Group 300" transform="translate(10.122 2.817)">
              <g id="Group_299" data-name="Group 299">
                <rect id="Rectangle_338" data-name="Rectangle 338" width="3.108" height="7.759" fill="#fff"/>
              </g>
            </g>
            <g id="Group_302" data-name="Group 302" transform="translate(15.184)">
              <g id="Group_301" data-name="Group 301">
                <rect id="Rectangle_339" data-name="Rectangle 339" width="3.108" height="10.576" fill="#fff"/>
              </g>
            </g>
          </g>
          <g id="Group_308" data-name="Group 308" transform="translate(47.472 1.56)">
            <g id="Group_305" data-name="Group 305">
              <g id="Group_304" data-name="Group 304">
                <path id="Path_91" data-name="Path 91" d="M343.3,88.619H327.689a1.12,1.12,0,0,1-1.12-1.118V79.743a1.117,1.117,0,0,1,1.109-1.12H343.3a.282.282,0,0,1,.286.286v2.558h1.67a.284.284,0,0,1,.286.286V85.49a.284.284,0,0,1-.286.286h-1.67v2.558A.284.284,0,0,1,343.3,88.619Zm-.286-9.425H327.678a.536.536,0,0,0-.537.548V87.5a.549.549,0,0,0,.548.546h15.322V85.49a.286.286,0,0,1,.286-.286h1.67V82.038H343.3a.286.286,0,0,1-.286-.286Z" transform="translate(-326.569 -78.623)" fill="#fff"/>
              </g>
            </g>
            <g id="Group_307" data-name="Group 307" transform="translate(1.846 1.847)">
              <g id="Group_306" data-name="Group 306">
                <path id="Path_92" data-name="Path 92" d="M327.428,85.786v-6.3h13.323v6.3Z" transform="translate(-327.428 -79.482)" fill="#fff"/>
              </g>
            </g>
          </g>
          <g id="Group_318" data-name="Group 318" transform="translate(23.482)">
            <g id="Group_310" data-name="Group 310" transform="translate(7.411 9.82)">
              <g id="Group_309" data-name="Group 309">
                <path id="Path_93" data-name="Path 93" d="M321.138,83.605A1.141,1.141,0,1,0,320,84.746,1.14,1.14,0,0,0,321.138,83.605Z" transform="translate(-318.855 -82.466)" fill="#fff"/>
              </g>
            </g>
            <g id="Group_317" data-name="Group 317">
              <g id="Group_312" data-name="Group 312" transform="translate(4.662 6.596)">
                <g id="Group_311" data-name="Group 311">
                  <path id="Path_94" data-name="Path 94" d="M317.576,82.58l1.457,1.455a3.443,3.443,0,0,1,4.868,0l1.455-1.455a5.5,5.5,0,0,0-7.78,0Z" transform="translate(-317.576 -80.966)" fill="#fff"/>
                </g>
              </g>
              <g id="Group_314" data-name="Group 314" transform="translate(2.368 3.351)">
                <g id="Group_313" data-name="Group 313">
                  <path id="Path_95" data-name="Path 95" d="M322.692,79.456a8.724,8.724,0,0,0-6.183,2.566l1.457,1.455a6.681,6.681,0,0,1,9.455,0l1.457-1.455A8.729,8.729,0,0,0,322.692,79.456Z" transform="translate(-316.509 -79.456)" fill="#fff"/>
                </g>
              </g>
              <g id="Group_316" data-name="Group 316">
                <g id="Group_315" data-name="Group 315">
                  <path id="Path_96" data-name="Path 96" d="M315.407,81.445l1.457,1.455a10.027,10.027,0,0,1,14.192,0l1.457-1.455a12.082,12.082,0,0,0-17.106,0Z" transform="translate(-315.407 -77.897)" fill="#fff"/>
                </g>
              </g>
            </g>
          </g>
        </g>
        <g id="Group_329" data-name="Group 329" transform="translate(160.438 25.782)">
          <g id="Group_266" data-name="Group 266" transform="translate(33.11)">
            <g id="Group_265" data-name="Group 265">
              <g id="Group_264" data-name="Group 264">
                <path id="Path_83" data-name="Path 83" d="M241.779,82.824a4.8,4.8,0,1,1,0-9.606h61.752a4.8,4.8,0,1,1,0,9.606Z" transform="translate(-236.976 -73.218)" fill="#263238"/>
              </g>
            </g>
          </g>
          <g id="Group_279" data-name="Group 279">
            <g id="Group_269" data-name="Group 269">
              <g id="Group_268" data-name="Group 268">
                <g id="Group_267" data-name="Group 267">
                  <path id="Path_84" data-name="Path 84" d="M225.627,82.824a4.8,4.8,0,1,1,4.8-4.8A4.808,4.808,0,0,1,225.627,82.824Z" transform="translate(-220.824 -73.218)" fill="#263238"/>
                </g>
              </g>
            </g>
            <g id="Group_272" data-name="Group 272" transform="translate(17.674)">
              <g id="Group_271" data-name="Group 271">
                <g id="Group_270" data-name="Group 270">
                  <path id="Path_85" data-name="Path 85" d="M234.247,82.824a4.8,4.8,0,1,1,4.8-4.8A4.808,4.808,0,0,1,234.247,82.824Z" transform="translate(-229.446 -73.218)" fill="#263238"/>
                </g>
              </g>
            </g>
            <g id="Group_275" data-name="Group 275" transform="translate(128.242)">
              <g id="Group_274" data-name="Group 274">
                <g id="Group_273" data-name="Group 273">
                  <path id="Path_86" data-name="Path 86" d="M288.186,82.824a4.8,4.8,0,1,1,4.8-4.8A4.808,4.808,0,0,1,288.186,82.824Z" transform="translate(-283.385 -73.218)" fill="#263238"/>
                </g>
              </g>
            </g>
            <g id="Group_278" data-name="Group 278" transform="translate(110.568)">
              <g id="Group_277" data-name="Group 277">
                <g id="Group_276" data-name="Group 276">
                  <path id="Path_87" data-name="Path 87" d="M279.566,82.824a4.8,4.8,0,1,1,4.8-4.8A4.808,4.808,0,0,1,279.566,82.824Z" transform="translate(-274.763 -73.218)" fill="#263238"/>
                </g>
              </g>
            </g>
          </g>
        </g>
        <g id="Pricing_Plan_L" data-name="Pricing Plan L">
          <g transform="matrix(1, 0, 0, 1, -56, -60.22)" filter="url(#Rectangle_344)">
            <rect id="Rectangle_344-2" data-name="Rectangle 344" width="449" height="148" rx="30" transform="translate(101 319)" fill="#fff"/>
          </g>
          <text id="Pricing_Plan" data-name="Pricing Plan" transform="translate(147 343.782)" font-size="32" font-family="SegoeUI, Segoe UI" letter-spacing="0.01em"><tspan x="0" y="0">Pricing Plan</tspan></text>
          <g id="Ellipse_130" data-name="Ellipse 130" transform="translate(80 308.782)" fill="#fff" stroke="#0a87fa" stroke-width="3">
            <circle cx="24.5" cy="24.5" r="24.5" stroke="none"/>
            <circle cx="24.5" cy="24.5" r="23" fill="none"/>
          </g>
          <path id="Icon_feather-check" data-name="Icon feather-check" d="M28.145,9,12.92,24.224,6,17.3" transform="translate(86.713 316.871)" fill="none" stroke="#0a87fa" stroke-linecap="round" stroke-linejoin="round" stroke-width="3"/>
        </g>
        <g id="Get_Email_S" data-name="Get Email S">
          <g transform="matrix(1, 0, 0, 1, -56, -60.22)" filter="url(#Rectangle_345)">
            <rect id="Rectangle_345-2" data-name="Rectangle 345" width="369" height="106" rx="25" transform="translate(101 491)" fill="#fff"/>
          </g>
          <text id="Get_Email" data-name="Get Email" transform="translate(147 494.782)" font-size="25" font-family="SegoeUI, Segoe UI" letter-spacing="0.01em"><tspan x="0" y="0">Get Email</tspan></text>
          <g id="Ellipse_131" data-name="Ellipse 131" transform="translate(80 460.782)" fill="#fff" stroke="#000" stroke-width="3" opacity="0.22">
            <ellipse cx="24" cy="23.5" rx="24" ry="23.5" stroke="none"/>
            <ellipse cx="24" cy="23.5" rx="22.5" ry="22" fill="none"/>
          </g>
          <path id="Icon_feather-check-2" data-name="Icon feather-check" d="M27.29,9,12.653,23.637,6,16.984" transform="translate(87.347 467.633)" fill="none" stroke="#000" stroke-linecap="round" stroke-linejoin="round" stroke-width="3" opacity="0.22"/>
        </g>
        <g id="Download_S" data-name="Download S">
          <g transform="matrix(1, 0, 0, 1, -56, -60.22)" filter="url(#Rectangle_349)">
            <rect id="Rectangle_349-2" data-name="Rectangle 349" width="369" height="106" rx="25" transform="translate(101 623)" fill="#fff"/>
          </g>
          <text id="Download_Install" data-name="Download &amp; Install" transform="translate(147 626.782)" font-size="25" font-family="SegoeUI, Segoe UI" letter-spacing="0.01em"><tspan x="0" y="0">Download &amp; Install</tspan></text>
          <g id="Ellipse_132" data-name="Ellipse 132" transform="translate(80 592.782)" fill="#fff" stroke="#000" stroke-width="3" opacity="0.22">
            <ellipse cx="24" cy="23.5" rx="24" ry="23.5" stroke="none"/>
            <ellipse cx="24" cy="23.5" rx="22.5" ry="22" fill="none"/>
          </g>
          <path id="Icon_feather-check-3" data-name="Icon feather-check" d="M27.29,9,12.653,23.637,6,16.984" transform="translate(87.347 599.633)" fill="none" stroke="#000" stroke-linecap="round" stroke-linejoin="round" stroke-width="3" opacity="0.22"/>
        </g>
        <g id="Start_Mon_S" data-name="Start Mon S">
          <g transform="matrix(1, 0, 0, 1, -56, -60.22)" filter="url(#Rectangle_350)">
            <rect id="Rectangle_350-2" data-name="Rectangle 350" width="369" height="106" rx="25" transform="translate(101 753)" fill="#fff"/>
          </g>
          <text id="Start_Monitoring" data-name="Start Monitoring" transform="translate(147 756.782)" font-size="25" font-family="SegoeUI, Segoe UI" letter-spacing="0.01em"><tspan x="0" y="0">Start Monitoring</tspan></text>
          <g id="Ellipse_133" data-name="Ellipse 133" transform="translate(80 722.782)" fill="#fff" stroke="#000" stroke-width="3" opacity="0.22">
            <ellipse cx="24" cy="23.5" rx="24" ry="23.5" stroke="none"/>
            <ellipse cx="24" cy="23.5" rx="22.5" ry="22" fill="none"/>
          </g>
          <path id="Icon_feather-check-4" data-name="Icon feather-check" d="M27.29,9,12.653,23.637,6,16.984" transform="translate(87.347 729.633)" fill="none" stroke="#000" stroke-linecap="round" stroke-linejoin="round" stroke-width="3" opacity="0.22"/>
        </g>
      </g>
    </g>
  </g>
</svg>
