<svg xmlns="http://www.w3.org/2000/svg" width="173.051" height="31" viewBox="0 0 173.051 31">
  <g id="usatoday" transform="translate(0 -8.5)">
    <g id="Group_1107" data-name="Group 1107" transform="translate(38.272 16.091)">
      <path id="Path_2102" data-name="Path 2102" d="M60,29.2V20.4h4.465v8.675c0,2.743,1.148,3.827,3,3.827s3-1.084,3-3.827V20.4h4.4v8.8c0,4.72-2.743,7.4-7.463,7.4S60,33.923,60,29.2Z" transform="translate(-60 -20.4)" fill="#939598"/>
    </g>
    <g id="Group_1108" data-name="Group 1108" transform="translate(55.111 15.835)">
      <path id="Path_2103" data-name="Path 2103" d="M86.4,34.735l1.467-3.317a9.726,9.726,0,0,0,5.23,1.595c1.85,0,2.615-.51,2.615-1.276,0-2.551-9.058-.7-9.058-6.57,0-2.807,2.3-5.167,7.016-5.167a11.266,11.266,0,0,1,5.741,1.4l-1.4,3.317a9.189,9.189,0,0,0-4.4-1.212c-1.914,0-2.551.638-2.551,1.4,0,2.424,8.994.638,8.994,6.442,0,2.743-2.3,5.1-7.016,5.1A12.912,12.912,0,0,1,86.4,34.735Z" transform="translate(-86.4 -20)" fill="#939598"/>
    </g>
    <g id="Group_1109" data-name="Group 1109" transform="translate(69.016 16.091)">
      <path id="Path_2104" data-name="Path 2104" d="M120.766,33.221h-6.7l-1.276,3.062H108.2L115.216,20.4h4.4l7.016,15.883h-4.656Zm-1.34-3.317-2.041-5.1-2.041,5.1Z" transform="translate(-108.2 -20.4)" fill="#939598"/>
    </g>
    <g id="Group_1110" data-name="Group 1110" transform="translate(92.043 16.091)">
      <path id="Path_2105" data-name="Path 2105" d="M149.212,23.972H144.3V20.4h14.224v3.572h-4.848V36.283h-4.465Z" transform="translate(-144.3 -20.4)" fill="#939598"/>
    </g>
    <g id="Group_1111" data-name="Group 1111" transform="translate(106.65 15.708)">
      <path id="Path_2106" data-name="Path 2106" d="M167.2,28.092c0-4.784,3.763-8.292,8.8-8.292s8.8,3.508,8.8,8.292-3.763,8.292-8.8,8.292S167.2,32.876,167.2,28.092Zm13.14,0a4.281,4.281,0,1,0-8.547,0,4.281,4.281,0,1,0,8.547,0Z" transform="translate(-167.2 -19.8)" fill="#939598"/>
    </g>
    <g id="Group_1112" data-name="Group 1112" transform="translate(125.977 16.091)">
      <path id="Path_2107" data-name="Path 2107" d="M197.5,20.4h7.527c5.294,0,8.866,3.062,8.866,7.973s-3.636,7.909-8.866,7.909H197.5Zm7.335,12.311c2.679,0,4.529-1.595,4.529-4.337s-1.786-4.337-4.529-4.337h-2.87v8.739l2.87-.064Z" transform="translate(-197.5 -20.4)" fill="#939598"/>
    </g>
    <g id="Group_1113" data-name="Group 1113" transform="translate(141.158 16.091)">
      <path id="Path_2108" data-name="Path 2108" d="M233.93,33.221h-6.761l-1.276,3.062H221.3L228.316,20.4h4.4l7.016,15.883h-4.656ZM232.59,29.9l-2.041-5.1-2.041,5.1Z" transform="translate(-221.3 -20.4)" fill="#939598"/>
    </g>
    <g id="Group_1114" data-name="Group 1114" transform="translate(156.467 16.091)">
      <path id="Path_2109" data-name="Path 2109" d="M255.825,30.606v5.677H251.36V30.542L245.3,20.4h4.72l3.763,6.315,3.763-6.315h4.337Z" transform="translate(-245.3 -20.4)" fill="#939598"/>
    </g>
    <ellipse id="Ellipse_538" data-name="Ellipse 538" cx="15.5" cy="15.5" rx="15.5" ry="15.5" transform="translate(0 8.5)" fill="#a7a9ac"/>
  </g>
</svg>
